M48
; DRILL file {KiCad 7.0.7-dirty} date Wed Sep 27 11:33:42 2023
; FORMAT={-:-/ absolute / inch / decimal}
; #@! TF.CreationDate,2023-09-27T11:33:42-05:00
; #@! TF.GenerationSoftware,Kicad,Pcbnew,7.0.7-dirty
; #@! TF.FileFunction,Plated,1,2,PTH
FMAT,2
INCH
; #@! TA.AperFunction,Plated,PTH,ViaDrill
T1C0.0150
%
G90
G05
T1
X5.7459Y-3.732
X5.7459Y-3.732
X5.8209Y-3.732
X5.8209Y-3.732
X5.8209Y-4.232
X5.8209Y-4.232
X5.8459Y-3.932
X5.8459Y-3.932
X5.8459Y-4.032
X5.8459Y-4.032
X5.8459Y-4.082
X5.8459Y-4.082
X5.8459Y-4.157
X5.8459Y-4.157
X5.8459Y-4.307
X5.8459Y-4.307
X5.8459Y-4.382
X5.8459Y-4.482
X5.8459Y-4.582
X5.8709Y-3.732
X5.8709Y-3.732
X5.8709Y-4.232
X5.8709Y-4.232
X5.9459Y-3.732
X5.9459Y-3.732
T0
M30
