%TF.GenerationSoftware,KiCad,Pcbnew,7.0.7-dirty*%
%TF.CreationDate,2023-09-27T11:33:23-05:00*%
%TF.ProjectId,BBB_JTAG_CTI20_SMT_TI20_SMT,4242425f-4a54-4414-975f-43544932305f,rev?*%
%TF.SameCoordinates,Original*%
%TF.FileFunction,Copper,L1,Top*%
%TF.FilePolarity,Positive*%
%FSLAX46Y46*%
G04 Gerber Fmt 4.6, Leading zero omitted, Abs format (unit mm)*
G04 Created by KiCad (PCBNEW 7.0.7-dirty) date 2023-09-27 11:33:23*
%MOMM*%
%LPD*%
G01*
G04 APERTURE LIST*
%TA.AperFunction,SMDPad,CuDef*%
%ADD10R,4.300000X1.020000*%
%TD*%
%TA.AperFunction,ViaPad*%
%ADD11C,0.736600*%
%TD*%
%TA.AperFunction,Conductor*%
%ADD12C,0.304800*%
%TD*%
G04 APERTURE END LIST*
D10*
%TO.P,P2,20*%
%TO.N,GND*%
X151951100Y-116433600D03*
%TO.P,P2,18*%
%TO.N,N/C*%
X151951100Y-113893600D03*
%TO.P,P2,16*%
%TO.N,GND*%
X151951100Y-111353600D03*
%TO.P,P2,14*%
%TO.N,EMU1*%
X151951100Y-108813600D03*
%TO.P,P2,12*%
%TO.N,GND*%
X151951100Y-106273600D03*
%TO.P,P2,10*%
X151951100Y-103733600D03*
%TO.P,P2,8*%
X151951100Y-101193600D03*
%TO.P,P2,6*%
%TO.N,N/C*%
X151951100Y-98653600D03*
%TO.P,P2,4*%
%TO.N,DIS*%
X151951100Y-96113600D03*
%TO.P,P2,2*%
%TO.N,TRST_N*%
X151951100Y-93573600D03*
%TO.P,P2,19*%
%TO.N,N/C*%
X145051100Y-116433600D03*
%TO.P,P2,17*%
X145051100Y-113893600D03*
%TO.P,P2,15*%
%TO.N,SRST_N*%
X145051100Y-111353600D03*
%TO.P,P2,13*%
%TO.N,EMU0*%
X145051100Y-108813600D03*
%TO.P,P2,11*%
%TO.N,TCK*%
X145051100Y-106273600D03*
%TO.P,P2,9*%
%TO.N,RTCK*%
X145051100Y-103733600D03*
%TO.P,P2,7*%
%TO.N,TDO*%
X145051100Y-101193600D03*
%TO.P,P2,5*%
%TO.N,VDD*%
X145051100Y-98653600D03*
%TO.P,P2,3*%
%TO.N,TDI*%
X145051100Y-96113600D03*
%TO.P,P2,1*%
%TO.N,TMS*%
X145051100Y-93573600D03*
%TD*%
D11*
%TO.N,SRST_N*%
X148486100Y-109398600D03*
%TO.N,RTCK*%
X148486100Y-103683600D03*
%TO.N,EMU1*%
X149121100Y-107493600D03*
%TO.N,EMU0*%
X147851100Y-107493600D03*
%TO.N,TCK*%
X148486100Y-105588600D03*
%TO.N,TDO*%
X148486100Y-102413600D03*
%TO.N,VDD*%
X148486100Y-99873600D03*
%TO.N,DIS*%
X149121100Y-94793600D03*
%TO.N,TDI*%
X147851100Y-94793600D03*
%TO.N,TMS*%
X145946100Y-94793600D03*
%TO.N,TRST_N*%
X151026100Y-94793600D03*
%TO.N,EMU1*%
X149121100Y-107493600D03*
%TO.N,GND*%
X148486100Y-116383600D03*
X148486100Y-113843600D03*
X148486100Y-111303600D03*
%TO.N,DIS*%
X149121100Y-94793600D03*
%TO.N,TRST_N*%
X151026100Y-94793600D03*
%TO.N,SRST_N*%
X148486100Y-109398600D03*
%TO.N,EMU0*%
X147851100Y-107493600D03*
%TO.N,TCK*%
X148486100Y-105588600D03*
%TO.N,RTCK*%
X148486100Y-103683600D03*
%TO.N,TDO*%
X148486100Y-102413600D03*
%TO.N,VDD*%
X148486100Y-99873600D03*
%TO.N,TDI*%
X147851100Y-94793600D03*
%TO.N,TMS*%
X145946100Y-94793600D03*
%TD*%
D12*
%TO.N,EMU1*%
X150441100Y-108813600D02*
X149121100Y-107493600D01*
X151951100Y-108813600D02*
X150441100Y-108813600D01*
%TO.N,DIS*%
X149121100Y-95428600D02*
X149121100Y-94793600D01*
X149806100Y-96113600D02*
X149121100Y-95428600D01*
X151951100Y-96113600D02*
X149806100Y-96113600D01*
%TO.N,TRST_N*%
X151951100Y-93868600D02*
X151026100Y-94793600D01*
X151951100Y-93573600D02*
X151951100Y-93868600D01*
%TO.N,SRST_N*%
X146531100Y-111353600D02*
X148486100Y-109398600D01*
X145051100Y-111353600D02*
X146531100Y-111353600D01*
%TO.N,EMU0*%
X146531100Y-108813600D02*
X147851100Y-107493600D01*
X145051100Y-108813600D02*
X146531100Y-108813600D01*
%TO.N,TCK*%
X147801100Y-106273600D02*
X148486100Y-105588600D01*
X145051100Y-106273600D02*
X147801100Y-106273600D01*
%TO.N,RTCK*%
X148436100Y-103733600D02*
X148486100Y-103683600D01*
X145051100Y-103733600D02*
X148436100Y-103733600D01*
%TO.N,TDO*%
X148486100Y-101778600D02*
X148486100Y-102413600D01*
X147901100Y-101193600D02*
X148486100Y-101778600D01*
X145051100Y-101193600D02*
X147901100Y-101193600D01*
%TO.N,VDD*%
X148486100Y-99238600D02*
X148486100Y-99873600D01*
X147901100Y-98653600D02*
X148486100Y-99238600D01*
X145051100Y-98653600D02*
X147901100Y-98653600D01*
%TO.N,TDI*%
X147851100Y-95428600D02*
X147851100Y-94793600D01*
X147166100Y-96113600D02*
X147851100Y-95428600D01*
X145051100Y-96113600D02*
X147166100Y-96113600D01*
%TO.N,TMS*%
X145051100Y-93898600D02*
X145946100Y-94793600D01*
X145051100Y-93573600D02*
X145051100Y-93898600D01*
%TD*%
%TA.AperFunction,Conductor*%
%TO.N,GND*%
G36*
X155434131Y-86048313D02*
G01*
X155470676Y-86098613D01*
X155475600Y-86129700D01*
X155475600Y-123877500D01*
X155456387Y-123936631D01*
X155406087Y-123973176D01*
X155375000Y-123978100D01*
X141627200Y-123978100D01*
X141568069Y-123958887D01*
X141531524Y-123908587D01*
X141526600Y-123877500D01*
X141526600Y-116958655D01*
X142748200Y-116958655D01*
X142757071Y-117003257D01*
X142757073Y-117003261D01*
X142790864Y-117053832D01*
X142790865Y-117053833D01*
X142790866Y-117053834D01*
X142841442Y-117087628D01*
X142886043Y-117096500D01*
X147216156Y-117096499D01*
X147260758Y-117087628D01*
X147311334Y-117053834D01*
X147345128Y-117003258D01*
X147346062Y-116998563D01*
X149344700Y-116998563D01*
X149347592Y-117029408D01*
X149393031Y-117159269D01*
X149474731Y-117269968D01*
X149585430Y-117351668D01*
X149715292Y-117397107D01*
X149715291Y-117397107D01*
X149746137Y-117400000D01*
X150661977Y-117400000D01*
X151307424Y-117400000D01*
X152594776Y-117400000D01*
X151951100Y-116756324D01*
X151307424Y-117400000D01*
X150661977Y-117400000D01*
X151628376Y-116433599D01*
X152273823Y-116433599D01*
X153240223Y-117400000D01*
X154156063Y-117400000D01*
X154186908Y-117397107D01*
X154316769Y-117351668D01*
X154427468Y-117269968D01*
X154509168Y-117159269D01*
X154554607Y-117029408D01*
X154557500Y-116998563D01*
X154557500Y-115868636D01*
X154554607Y-115837791D01*
X154509168Y-115707930D01*
X154427468Y-115597231D01*
X154316769Y-115515531D01*
X154186907Y-115470092D01*
X154186908Y-115470092D01*
X154156063Y-115467200D01*
X153240223Y-115467200D01*
X152273823Y-116433599D01*
X151628376Y-116433599D01*
X151628376Y-116433598D01*
X150661977Y-115467200D01*
X151307424Y-115467200D01*
X151951100Y-116110876D01*
X152594776Y-115467200D01*
X151307424Y-115467200D01*
X150661977Y-115467200D01*
X149746137Y-115467200D01*
X149715291Y-115470092D01*
X149585430Y-115515531D01*
X149474731Y-115597231D01*
X149393031Y-115707930D01*
X149347592Y-115837791D01*
X149344700Y-115868636D01*
X149344700Y-116998563D01*
X147346062Y-116998563D01*
X147354000Y-116958657D01*
X147353999Y-115908544D01*
X147345128Y-115863942D01*
X147345126Y-115863938D01*
X147311335Y-115813367D01*
X147311333Y-115813365D01*
X147260757Y-115779571D01*
X147225027Y-115772464D01*
X147216157Y-115770700D01*
X147216156Y-115770700D01*
X142886044Y-115770700D01*
X142841442Y-115779571D01*
X142841438Y-115779573D01*
X142790867Y-115813364D01*
X142790865Y-115813366D01*
X142757071Y-115863942D01*
X142748200Y-115908543D01*
X142748200Y-116958655D01*
X141526600Y-116958655D01*
X141526600Y-114418655D01*
X142748200Y-114418655D01*
X142757071Y-114463257D01*
X142757073Y-114463261D01*
X142790864Y-114513832D01*
X142790865Y-114513833D01*
X142790866Y-114513834D01*
X142841442Y-114547628D01*
X142886043Y-114556500D01*
X147216156Y-114556499D01*
X147260758Y-114547628D01*
X147311334Y-114513834D01*
X147345128Y-114463258D01*
X147354000Y-114418657D01*
X147354000Y-114418655D01*
X149648200Y-114418655D01*
X149657071Y-114463257D01*
X149657073Y-114463261D01*
X149690864Y-114513832D01*
X149690865Y-114513833D01*
X149690866Y-114513834D01*
X149741442Y-114547628D01*
X149786043Y-114556500D01*
X154116156Y-114556499D01*
X154160758Y-114547628D01*
X154211334Y-114513834D01*
X154245128Y-114463258D01*
X154254000Y-114418657D01*
X154253999Y-113368544D01*
X154245128Y-113323942D01*
X154245126Y-113323938D01*
X154211335Y-113273367D01*
X154211333Y-113273365D01*
X154160757Y-113239571D01*
X154125027Y-113232464D01*
X154116157Y-113230700D01*
X154116156Y-113230700D01*
X149786044Y-113230700D01*
X149741442Y-113239571D01*
X149741438Y-113239573D01*
X149690867Y-113273364D01*
X149690865Y-113273366D01*
X149657071Y-113323942D01*
X149648200Y-113368543D01*
X149648200Y-114418655D01*
X147354000Y-114418655D01*
X147353999Y-113368544D01*
X147345128Y-113323942D01*
X147345126Y-113323938D01*
X147311335Y-113273367D01*
X147311333Y-113273365D01*
X147260757Y-113239571D01*
X147225027Y-113232464D01*
X147216157Y-113230700D01*
X147216156Y-113230700D01*
X142886044Y-113230700D01*
X142841442Y-113239571D01*
X142841438Y-113239573D01*
X142790867Y-113273364D01*
X142790865Y-113273366D01*
X142757071Y-113323942D01*
X142748200Y-113368543D01*
X142748200Y-114418655D01*
X141526600Y-114418655D01*
X141526600Y-111878655D01*
X142748200Y-111878655D01*
X142757071Y-111923257D01*
X142757073Y-111923261D01*
X142790864Y-111973832D01*
X142790865Y-111973833D01*
X142790866Y-111973834D01*
X142841442Y-112007628D01*
X142886043Y-112016500D01*
X147216156Y-112016499D01*
X147260758Y-112007628D01*
X147311334Y-111973834D01*
X147345128Y-111923258D01*
X147346062Y-111918563D01*
X149344700Y-111918563D01*
X149347592Y-111949408D01*
X149393031Y-112079269D01*
X149474731Y-112189968D01*
X149585430Y-112271668D01*
X149715292Y-112317107D01*
X149715291Y-112317107D01*
X149746137Y-112320000D01*
X150661977Y-112320000D01*
X151307424Y-112320000D01*
X152594776Y-112320000D01*
X151951100Y-111676324D01*
X151307424Y-112320000D01*
X150661977Y-112320000D01*
X151628376Y-111353599D01*
X152273823Y-111353599D01*
X153240223Y-112320000D01*
X154156063Y-112320000D01*
X154186908Y-112317107D01*
X154316769Y-112271668D01*
X154427468Y-112189968D01*
X154509168Y-112079269D01*
X154554607Y-111949408D01*
X154557500Y-111918563D01*
X154557500Y-110788636D01*
X154554607Y-110757791D01*
X154509168Y-110627930D01*
X154427468Y-110517231D01*
X154316769Y-110435531D01*
X154186907Y-110390092D01*
X154186908Y-110390092D01*
X154156063Y-110387200D01*
X153240223Y-110387200D01*
X152273823Y-111353599D01*
X151628376Y-111353599D01*
X151628376Y-111353598D01*
X150661977Y-110387200D01*
X151307424Y-110387200D01*
X151951100Y-111030876D01*
X152594776Y-110387200D01*
X151307424Y-110387200D01*
X150661977Y-110387200D01*
X149746137Y-110387200D01*
X149715291Y-110390092D01*
X149585430Y-110435531D01*
X149474731Y-110517231D01*
X149393031Y-110627930D01*
X149347592Y-110757791D01*
X149344700Y-110788636D01*
X149344700Y-111918563D01*
X147346062Y-111918563D01*
X147354000Y-111878657D01*
X147353999Y-111004127D01*
X147373212Y-110944997D01*
X147383458Y-110932999D01*
X148368011Y-109948446D01*
X148423407Y-109920222D01*
X148452276Y-109919844D01*
X148486098Y-109924297D01*
X148486100Y-109924297D01*
X148486103Y-109924297D01*
X148588145Y-109910862D01*
X148622160Y-109906384D01*
X148748949Y-109853867D01*
X148857824Y-109770324D01*
X148941367Y-109661449D01*
X148993884Y-109534660D01*
X149007158Y-109433834D01*
X149011797Y-109398602D01*
X149011797Y-109398597D01*
X148993884Y-109262540D01*
X148941369Y-109135756D01*
X148941368Y-109135754D01*
X148941367Y-109135753D01*
X148941367Y-109135752D01*
X148857824Y-109026876D01*
X148857823Y-109026875D01*
X148857821Y-109026873D01*
X148748951Y-108943334D01*
X148748947Y-108943332D01*
X148622159Y-108890815D01*
X148486103Y-108872903D01*
X148486097Y-108872903D01*
X148350040Y-108890815D01*
X148223256Y-108943330D01*
X148223249Y-108943334D01*
X148114379Y-109026873D01*
X148114373Y-109026879D01*
X148030834Y-109135749D01*
X148030830Y-109135756D01*
X147978315Y-109262540D01*
X147960403Y-109398597D01*
X147960403Y-109398603D01*
X147964855Y-109432422D01*
X147953525Y-109493555D01*
X147936251Y-109516687D01*
X146791704Y-110661235D01*
X146736306Y-110689461D01*
X146720569Y-110690700D01*
X142886044Y-110690700D01*
X142841442Y-110699571D01*
X142841438Y-110699573D01*
X142790867Y-110733364D01*
X142790865Y-110733366D01*
X142757071Y-110783942D01*
X142748200Y-110828543D01*
X142748200Y-111878655D01*
X141526600Y-111878655D01*
X141526600Y-109338655D01*
X142748200Y-109338655D01*
X142757071Y-109383257D01*
X142757073Y-109383261D01*
X142790864Y-109433832D01*
X142790865Y-109433833D01*
X142790866Y-109433834D01*
X142841442Y-109467628D01*
X142886043Y-109476500D01*
X147216156Y-109476499D01*
X147260758Y-109467628D01*
X147311334Y-109433834D01*
X147345128Y-109383258D01*
X147354000Y-109338657D01*
X147353999Y-108464127D01*
X147373212Y-108404997D01*
X147383458Y-108392999D01*
X147733011Y-108043446D01*
X147788407Y-108015222D01*
X147817276Y-108014844D01*
X147851098Y-108019297D01*
X147851100Y-108019297D01*
X147851103Y-108019297D01*
X147953145Y-108005862D01*
X147987160Y-108001384D01*
X148113949Y-107948867D01*
X148222824Y-107865324D01*
X148306367Y-107756449D01*
X148358884Y-107629660D01*
X148376797Y-107493602D01*
X148595403Y-107493602D01*
X148613315Y-107629659D01*
X148665832Y-107756447D01*
X148665834Y-107756451D01*
X148749373Y-107865321D01*
X148749378Y-107865326D01*
X148858248Y-107948865D01*
X148858251Y-107948867D01*
X148985039Y-108001383D01*
X148985040Y-108001384D01*
X149121097Y-108019297D01*
X149121100Y-108019297D01*
X149121101Y-108019297D01*
X149154922Y-108014844D01*
X149216055Y-108026173D01*
X149239189Y-108043448D01*
X149618735Y-108422994D01*
X149646961Y-108478392D01*
X149648200Y-108494129D01*
X149648200Y-109338655D01*
X149657071Y-109383257D01*
X149657073Y-109383261D01*
X149690864Y-109433832D01*
X149690865Y-109433833D01*
X149690866Y-109433834D01*
X149741442Y-109467628D01*
X149786043Y-109476500D01*
X154116156Y-109476499D01*
X154160758Y-109467628D01*
X154211334Y-109433834D01*
X154245128Y-109383258D01*
X154254000Y-109338657D01*
X154253999Y-108288544D01*
X154245128Y-108243942D01*
X154245126Y-108243938D01*
X154211335Y-108193367D01*
X154211333Y-108193365D01*
X154160757Y-108159571D01*
X154125027Y-108152464D01*
X154116157Y-108150700D01*
X154116156Y-108150700D01*
X150251629Y-108150700D01*
X150192498Y-108131487D01*
X150180494Y-108121235D01*
X149670948Y-107611689D01*
X149642722Y-107556291D01*
X149642344Y-107527422D01*
X149646797Y-107493601D01*
X149646797Y-107493598D01*
X149628216Y-107352468D01*
X149639546Y-107291334D01*
X149684645Y-107248536D01*
X149737355Y-107239176D01*
X149746135Y-107240000D01*
X150661977Y-107240000D01*
X151307424Y-107240000D01*
X152594776Y-107240000D01*
X151951100Y-106596324D01*
X151307424Y-107240000D01*
X150661977Y-107240000D01*
X151628376Y-106273599D01*
X152273823Y-106273599D01*
X153240223Y-107240000D01*
X154156063Y-107240000D01*
X154186908Y-107237107D01*
X154316769Y-107191668D01*
X154427468Y-107109968D01*
X154509168Y-106999269D01*
X154554607Y-106869408D01*
X154557500Y-106838563D01*
X154557500Y-105708636D01*
X154554607Y-105677791D01*
X154509168Y-105547930D01*
X154427468Y-105437231D01*
X154316769Y-105355531D01*
X154186907Y-105310092D01*
X154186908Y-105310092D01*
X154156063Y-105307200D01*
X153240223Y-105307200D01*
X152273823Y-106273599D01*
X151628376Y-106273599D01*
X151628376Y-106273598D01*
X150661977Y-105307200D01*
X151307424Y-105307200D01*
X151951100Y-105950876D01*
X152594776Y-105307200D01*
X151307424Y-105307200D01*
X150661977Y-105307200D01*
X149746137Y-105307200D01*
X149715291Y-105310092D01*
X149585430Y-105355531D01*
X149474731Y-105437231D01*
X149393031Y-105547930D01*
X149347592Y-105677791D01*
X149344700Y-105708636D01*
X149344699Y-106838565D01*
X149347997Y-106873729D01*
X149334388Y-106934395D01*
X149287719Y-106975476D01*
X149234705Y-106982859D01*
X149121103Y-106967903D01*
X149121097Y-106967903D01*
X148985040Y-106985815D01*
X148858256Y-107038330D01*
X148858249Y-107038334D01*
X148749379Y-107121873D01*
X148749373Y-107121879D01*
X148665834Y-107230749D01*
X148665830Y-107230756D01*
X148613315Y-107357540D01*
X148595403Y-107493597D01*
X148595403Y-107493602D01*
X148376797Y-107493602D01*
X148376797Y-107493600D01*
X148376796Y-107493596D01*
X148358884Y-107357540D01*
X148306369Y-107230756D01*
X148306368Y-107230754D01*
X148306367Y-107230753D01*
X148306367Y-107230752D01*
X148222824Y-107121876D01*
X148222823Y-107121875D01*
X148222821Y-107121873D01*
X148113951Y-107038334D01*
X148113947Y-107038332D01*
X147987159Y-106985815D01*
X147851103Y-106967903D01*
X147851097Y-106967903D01*
X147715040Y-106985815D01*
X147588256Y-107038330D01*
X147588249Y-107038334D01*
X147479379Y-107121873D01*
X147479373Y-107121879D01*
X147395834Y-107230749D01*
X147395830Y-107230756D01*
X147343315Y-107357540D01*
X147325403Y-107493596D01*
X147325403Y-107493597D01*
X147325403Y-107493600D01*
X147329856Y-107527422D01*
X147329856Y-107527423D01*
X147318524Y-107588556D01*
X147301251Y-107611688D01*
X146791704Y-108121235D01*
X146736306Y-108149461D01*
X146720569Y-108150700D01*
X142886044Y-108150700D01*
X142841442Y-108159571D01*
X142841438Y-108159573D01*
X142790867Y-108193364D01*
X142790865Y-108193366D01*
X142757071Y-108243942D01*
X142748200Y-108288543D01*
X142748200Y-109338655D01*
X141526600Y-109338655D01*
X141526600Y-106798655D01*
X142748200Y-106798655D01*
X142757071Y-106843257D01*
X142757073Y-106843261D01*
X142790864Y-106893832D01*
X142790865Y-106893833D01*
X142790866Y-106893834D01*
X142841442Y-106927628D01*
X142886043Y-106936500D01*
X147216156Y-106936499D01*
X147260758Y-106927628D01*
X147311334Y-106893834D01*
X147345128Y-106843258D01*
X147354000Y-106798657D01*
X147354000Y-106679500D01*
X147373213Y-106620369D01*
X147423513Y-106583824D01*
X147454600Y-106578900D01*
X147734889Y-106578900D01*
X147748785Y-106581167D01*
X147748959Y-106579922D01*
X147758185Y-106581208D01*
X147758190Y-106581210D01*
X147787638Y-106579848D01*
X147806996Y-106578954D01*
X147809319Y-106578900D01*
X147829384Y-106578900D01*
X147829389Y-106578900D01*
X147832937Y-106578236D01*
X147839848Y-106577434D01*
X147872209Y-106575938D01*
X147881335Y-106571908D01*
X147903487Y-106565048D01*
X147913297Y-106563215D01*
X147940835Y-106546162D01*
X147946994Y-106542915D01*
X147976625Y-106529834D01*
X147983679Y-106522778D01*
X148001859Y-106508378D01*
X148010342Y-106503127D01*
X148029864Y-106477273D01*
X148034427Y-106472030D01*
X148368011Y-106138447D01*
X148423408Y-106110222D01*
X148452277Y-106109844D01*
X148486099Y-106114297D01*
X148486100Y-106114297D01*
X148486103Y-106114297D01*
X148588145Y-106100862D01*
X148622160Y-106096384D01*
X148748949Y-106043867D01*
X148857824Y-105960324D01*
X148941367Y-105851449D01*
X148993884Y-105724660D01*
X149003270Y-105653365D01*
X149011797Y-105588602D01*
X149011797Y-105588597D01*
X148993884Y-105452540D01*
X148941369Y-105325756D01*
X148941368Y-105325754D01*
X148941367Y-105325753D01*
X148941367Y-105325752D01*
X148857824Y-105216876D01*
X148857823Y-105216875D01*
X148857821Y-105216873D01*
X148748951Y-105133334D01*
X148748947Y-105133332D01*
X148622159Y-105080815D01*
X148486103Y-105062903D01*
X148486097Y-105062903D01*
X148350040Y-105080815D01*
X148223256Y-105133330D01*
X148223249Y-105133334D01*
X148114379Y-105216873D01*
X148114373Y-105216879D01*
X148030834Y-105325749D01*
X148030830Y-105325756D01*
X147978315Y-105452540D01*
X147960403Y-105588596D01*
X147960403Y-105588597D01*
X147960403Y-105588600D01*
X147964481Y-105619573D01*
X147964856Y-105622423D01*
X147953524Y-105683556D01*
X147936251Y-105706688D01*
X147704106Y-105938835D01*
X147648709Y-105967061D01*
X147632971Y-105968300D01*
X147454599Y-105968300D01*
X147395468Y-105949087D01*
X147358923Y-105898787D01*
X147353999Y-105867700D01*
X147353999Y-105748544D01*
X147345128Y-105703942D01*
X147345126Y-105703938D01*
X147311335Y-105653367D01*
X147311333Y-105653365D01*
X147260757Y-105619571D01*
X147225027Y-105612464D01*
X147216157Y-105610700D01*
X147216156Y-105610700D01*
X142886044Y-105610700D01*
X142841442Y-105619571D01*
X142841438Y-105619573D01*
X142790867Y-105653364D01*
X142790865Y-105653366D01*
X142757071Y-105703942D01*
X142748200Y-105748543D01*
X142748200Y-106798655D01*
X141526600Y-106798655D01*
X141526600Y-104258655D01*
X142748200Y-104258655D01*
X142757071Y-104303257D01*
X142757073Y-104303261D01*
X142790864Y-104353832D01*
X142790865Y-104353833D01*
X142790866Y-104353834D01*
X142841442Y-104387628D01*
X142886043Y-104396500D01*
X147216156Y-104396499D01*
X147260758Y-104387628D01*
X147311334Y-104353834D01*
X147345128Y-104303258D01*
X147346062Y-104298563D01*
X149344700Y-104298563D01*
X149347592Y-104329408D01*
X149393031Y-104459269D01*
X149474731Y-104569968D01*
X149585430Y-104651668D01*
X149715292Y-104697107D01*
X149715291Y-104697107D01*
X149746137Y-104700000D01*
X150661977Y-104700000D01*
X151307424Y-104700000D01*
X152594776Y-104700000D01*
X151951100Y-104056324D01*
X151307424Y-104700000D01*
X150661977Y-104700000D01*
X151628375Y-103733600D01*
X152273823Y-103733600D01*
X153240223Y-104700000D01*
X154156063Y-104700000D01*
X154186908Y-104697107D01*
X154316769Y-104651668D01*
X154427468Y-104569968D01*
X154509168Y-104459269D01*
X154554607Y-104329408D01*
X154557500Y-104298563D01*
X154557500Y-103168636D01*
X154554607Y-103137791D01*
X154509168Y-103007930D01*
X154427468Y-102897231D01*
X154316769Y-102815531D01*
X154186907Y-102770092D01*
X154186908Y-102770092D01*
X154156063Y-102767200D01*
X153240223Y-102767200D01*
X152273823Y-103733600D01*
X151628375Y-103733600D01*
X151628376Y-103733599D01*
X150661977Y-102767200D01*
X151307424Y-102767200D01*
X151951100Y-103410876D01*
X152594776Y-102767200D01*
X151307424Y-102767200D01*
X150661977Y-102767200D01*
X149746137Y-102767200D01*
X149715291Y-102770092D01*
X149585430Y-102815531D01*
X149474731Y-102897231D01*
X149393031Y-103007930D01*
X149347592Y-103137791D01*
X149344700Y-103168636D01*
X149344700Y-104298563D01*
X147346062Y-104298563D01*
X147354000Y-104258657D01*
X147354000Y-104139499D01*
X147373213Y-104080369D01*
X147423513Y-104043824D01*
X147454600Y-104038900D01*
X148058822Y-104038900D01*
X148117953Y-104058113D01*
X148120063Y-104059688D01*
X148223251Y-104138867D01*
X148350040Y-104191384D01*
X148486097Y-104209297D01*
X148486100Y-104209297D01*
X148486103Y-104209297D01*
X148588145Y-104195862D01*
X148622160Y-104191384D01*
X148748949Y-104138867D01*
X148857824Y-104055324D01*
X148941367Y-103946449D01*
X148993884Y-103819660D01*
X149011797Y-103683600D01*
X148993884Y-103547540D01*
X148993884Y-103547539D01*
X148941369Y-103420756D01*
X148941368Y-103420754D01*
X148941367Y-103420753D01*
X148941367Y-103420752D01*
X148857824Y-103311876D01*
X148857823Y-103311875D01*
X148857821Y-103311873D01*
X148748951Y-103228334D01*
X148748947Y-103228332D01*
X148622159Y-103175815D01*
X148486103Y-103157903D01*
X148486097Y-103157903D01*
X148350040Y-103175815D01*
X148223256Y-103228330D01*
X148223249Y-103228334D01*
X148114379Y-103311873D01*
X148114373Y-103311879D01*
X148055242Y-103388941D01*
X148004003Y-103424157D01*
X147975431Y-103428300D01*
X147454599Y-103428300D01*
X147395468Y-103409087D01*
X147358923Y-103358787D01*
X147353999Y-103327700D01*
X147353999Y-103208544D01*
X147345128Y-103163942D01*
X147345126Y-103163938D01*
X147311335Y-103113367D01*
X147311333Y-103113365D01*
X147260757Y-103079571D01*
X147225027Y-103072464D01*
X147216157Y-103070700D01*
X147216156Y-103070700D01*
X142886044Y-103070700D01*
X142841442Y-103079571D01*
X142841438Y-103079573D01*
X142790867Y-103113364D01*
X142790865Y-103113366D01*
X142757071Y-103163942D01*
X142748200Y-103208543D01*
X142748200Y-104258655D01*
X141526600Y-104258655D01*
X141526600Y-101718655D01*
X142748200Y-101718655D01*
X142757071Y-101763257D01*
X142757073Y-101763261D01*
X142790864Y-101813832D01*
X142790865Y-101813833D01*
X142790866Y-101813834D01*
X142841442Y-101847628D01*
X142886043Y-101856500D01*
X147216156Y-101856499D01*
X147260758Y-101847628D01*
X147311334Y-101813834D01*
X147345128Y-101763258D01*
X147354000Y-101718657D01*
X147354000Y-101599500D01*
X147373213Y-101540369D01*
X147423513Y-101503824D01*
X147454600Y-101498900D01*
X147732971Y-101498900D01*
X147792102Y-101518113D01*
X147804106Y-101528365D01*
X148148261Y-101872520D01*
X148176487Y-101927918D01*
X148166761Y-101989326D01*
X148138368Y-102023466D01*
X148114376Y-102041875D01*
X148030831Y-102150754D01*
X148030830Y-102150756D01*
X147978315Y-102277540D01*
X147960403Y-102413597D01*
X147960403Y-102413602D01*
X147978315Y-102549659D01*
X148030832Y-102676447D01*
X148030834Y-102676451D01*
X148114373Y-102785321D01*
X148114378Y-102785326D01*
X148153742Y-102815531D01*
X148223251Y-102868867D01*
X148291729Y-102897231D01*
X148350040Y-102921384D01*
X148486097Y-102939297D01*
X148486100Y-102939297D01*
X148486103Y-102939297D01*
X148588145Y-102925862D01*
X148622160Y-102921384D01*
X148748949Y-102868867D01*
X148857824Y-102785324D01*
X148941367Y-102676449D01*
X148993884Y-102549660D01*
X149011797Y-102413600D01*
X148993884Y-102277540D01*
X148945198Y-102160000D01*
X148941369Y-102150756D01*
X148941368Y-102150754D01*
X148941367Y-102150753D01*
X148941367Y-102150752D01*
X148857824Y-102041876D01*
X148830758Y-102021107D01*
X148795542Y-101969867D01*
X148791400Y-101941296D01*
X148791400Y-101844811D01*
X148793667Y-101830914D01*
X148792422Y-101830741D01*
X148793708Y-101821515D01*
X148793710Y-101821510D01*
X148792226Y-101789408D01*
X148791454Y-101772703D01*
X148791400Y-101770380D01*
X148791400Y-101758563D01*
X149344700Y-101758563D01*
X149347592Y-101789408D01*
X149393031Y-101919269D01*
X149474731Y-102029968D01*
X149585430Y-102111668D01*
X149715292Y-102157107D01*
X149715291Y-102157107D01*
X149746137Y-102160000D01*
X150661977Y-102160000D01*
X151307424Y-102160000D01*
X152594776Y-102160000D01*
X151951100Y-101516324D01*
X151307424Y-102160000D01*
X150661977Y-102160000D01*
X151628375Y-101193600D01*
X152273823Y-101193600D01*
X153240223Y-102160000D01*
X154156063Y-102160000D01*
X154186908Y-102157107D01*
X154316769Y-102111668D01*
X154427468Y-102029968D01*
X154509168Y-101919269D01*
X154554607Y-101789408D01*
X154557500Y-101758563D01*
X154557500Y-100628636D01*
X154554607Y-100597791D01*
X154509168Y-100467930D01*
X154427468Y-100357231D01*
X154316769Y-100275531D01*
X154186907Y-100230092D01*
X154186908Y-100230092D01*
X154156063Y-100227200D01*
X153240223Y-100227200D01*
X152273823Y-101193600D01*
X151628375Y-101193600D01*
X151628376Y-101193599D01*
X151628376Y-101193598D01*
X150661977Y-100227200D01*
X151307424Y-100227200D01*
X151951100Y-100870876D01*
X152594776Y-100227200D01*
X151307424Y-100227200D01*
X150661977Y-100227200D01*
X149746137Y-100227200D01*
X149715291Y-100230092D01*
X149585430Y-100275531D01*
X149474731Y-100357231D01*
X149393031Y-100467930D01*
X149347592Y-100597791D01*
X149344700Y-100628636D01*
X149344700Y-101758563D01*
X148791400Y-101758563D01*
X148791400Y-101750311D01*
X148790736Y-101746764D01*
X148789934Y-101739840D01*
X148788954Y-101718655D01*
X148788438Y-101707491D01*
X148784407Y-101698362D01*
X148777547Y-101676206D01*
X148775715Y-101666403D01*
X148758663Y-101638864D01*
X148755410Y-101632692D01*
X148742334Y-101603075D01*
X148735276Y-101596017D01*
X148720881Y-101577844D01*
X148715627Y-101569358D01*
X148689783Y-101549841D01*
X148684525Y-101545266D01*
X148163799Y-101024540D01*
X148155580Y-101013107D01*
X148154573Y-101013869D01*
X148148953Y-101006427D01*
X148112850Y-100973515D01*
X148111169Y-100971910D01*
X148096975Y-100957716D01*
X148094001Y-100955679D01*
X148088542Y-100951355D01*
X148064604Y-100929533D01*
X148064602Y-100929532D01*
X148055297Y-100925927D01*
X148034787Y-100915116D01*
X148026553Y-100909476D01*
X147995028Y-100902061D01*
X147988366Y-100899998D01*
X147984210Y-100898388D01*
X147958170Y-100888300D01*
X147958169Y-100888300D01*
X147948191Y-100888300D01*
X147925159Y-100885628D01*
X147915444Y-100883343D01*
X147915443Y-100883343D01*
X147903292Y-100885038D01*
X147883370Y-100887817D01*
X147876416Y-100888300D01*
X147454599Y-100888300D01*
X147395468Y-100869087D01*
X147358923Y-100818787D01*
X147353999Y-100787700D01*
X147353999Y-100668544D01*
X147345128Y-100623942D01*
X147345126Y-100623938D01*
X147311335Y-100573367D01*
X147311333Y-100573365D01*
X147260757Y-100539571D01*
X147225027Y-100532464D01*
X147216157Y-100530700D01*
X147216156Y-100530700D01*
X142886044Y-100530700D01*
X142841442Y-100539571D01*
X142841438Y-100539573D01*
X142790867Y-100573364D01*
X142790865Y-100573366D01*
X142757071Y-100623942D01*
X142748200Y-100668543D01*
X142748200Y-101718655D01*
X141526600Y-101718655D01*
X141526600Y-99178655D01*
X142748200Y-99178655D01*
X142757071Y-99223257D01*
X142757073Y-99223261D01*
X142790864Y-99273832D01*
X142790865Y-99273833D01*
X142790866Y-99273834D01*
X142841442Y-99307628D01*
X142886043Y-99316500D01*
X147216156Y-99316499D01*
X147260758Y-99307628D01*
X147311334Y-99273834D01*
X147345128Y-99223258D01*
X147354000Y-99178657D01*
X147354000Y-99059499D01*
X147373213Y-99000369D01*
X147423513Y-98963824D01*
X147454600Y-98958900D01*
X147732971Y-98958900D01*
X147792102Y-98978113D01*
X147804106Y-98988365D01*
X148148261Y-99332519D01*
X148176487Y-99387917D01*
X148166761Y-99449325D01*
X148138370Y-99483463D01*
X148114378Y-99501873D01*
X148114376Y-99501875D01*
X148030831Y-99610754D01*
X148030830Y-99610756D01*
X147978315Y-99737540D01*
X147960403Y-99873597D01*
X147960403Y-99873602D01*
X147978315Y-100009659D01*
X148030832Y-100136447D01*
X148030834Y-100136451D01*
X148114373Y-100245321D01*
X148114378Y-100245326D01*
X148153742Y-100275531D01*
X148223251Y-100328867D01*
X148291729Y-100357231D01*
X148350040Y-100381384D01*
X148486097Y-100399297D01*
X148486100Y-100399297D01*
X148486103Y-100399297D01*
X148588145Y-100385862D01*
X148622160Y-100381384D01*
X148748949Y-100328867D01*
X148857824Y-100245324D01*
X148941367Y-100136449D01*
X148993884Y-100009660D01*
X149011797Y-99873600D01*
X148993884Y-99737540D01*
X148941367Y-99610752D01*
X148857824Y-99501876D01*
X148830758Y-99481107D01*
X148795542Y-99429867D01*
X148791400Y-99401296D01*
X148791400Y-99304811D01*
X148793667Y-99290914D01*
X148792422Y-99290741D01*
X148793708Y-99281515D01*
X148793710Y-99281510D01*
X148792373Y-99252608D01*
X148791454Y-99232703D01*
X148791400Y-99230380D01*
X148791400Y-99210311D01*
X148790736Y-99206764D01*
X148789934Y-99199840D01*
X148788954Y-99178655D01*
X149648200Y-99178655D01*
X149657071Y-99223257D01*
X149657073Y-99223261D01*
X149690864Y-99273832D01*
X149690865Y-99273833D01*
X149690866Y-99273834D01*
X149741442Y-99307628D01*
X149786043Y-99316500D01*
X154116156Y-99316499D01*
X154160758Y-99307628D01*
X154211334Y-99273834D01*
X154245128Y-99223258D01*
X154254000Y-99178657D01*
X154253999Y-98128544D01*
X154245128Y-98083942D01*
X154245126Y-98083938D01*
X154211335Y-98033367D01*
X154211333Y-98033365D01*
X154160757Y-97999571D01*
X154125027Y-97992464D01*
X154116157Y-97990700D01*
X154116156Y-97990700D01*
X149786044Y-97990700D01*
X149741442Y-97999571D01*
X149741438Y-97999573D01*
X149690867Y-98033364D01*
X149690865Y-98033366D01*
X149657071Y-98083942D01*
X149648200Y-98128543D01*
X149648200Y-99178655D01*
X148788954Y-99178655D01*
X148788438Y-99167491D01*
X148784407Y-99158362D01*
X148777547Y-99136206D01*
X148775715Y-99126403D01*
X148758663Y-99098864D01*
X148755410Y-99092692D01*
X148742334Y-99063075D01*
X148735276Y-99056017D01*
X148720881Y-99037844D01*
X148715627Y-99029358D01*
X148689783Y-99009841D01*
X148684525Y-99005266D01*
X148163799Y-98484540D01*
X148155580Y-98473107D01*
X148154573Y-98473869D01*
X148148953Y-98466427D01*
X148112850Y-98433515D01*
X148111169Y-98431910D01*
X148096975Y-98417716D01*
X148094001Y-98415679D01*
X148088542Y-98411355D01*
X148064604Y-98389533D01*
X148064602Y-98389532D01*
X148055297Y-98385927D01*
X148034787Y-98375116D01*
X148026553Y-98369476D01*
X147995028Y-98362061D01*
X147988366Y-98359998D01*
X147984210Y-98358388D01*
X147958170Y-98348300D01*
X147958169Y-98348300D01*
X147948191Y-98348300D01*
X147925159Y-98345628D01*
X147915444Y-98343343D01*
X147915443Y-98343343D01*
X147903292Y-98345038D01*
X147883370Y-98347817D01*
X147876416Y-98348300D01*
X147454599Y-98348300D01*
X147395468Y-98329087D01*
X147358923Y-98278787D01*
X147353999Y-98247700D01*
X147353999Y-98128544D01*
X147345128Y-98083942D01*
X147345126Y-98083938D01*
X147311335Y-98033367D01*
X147311333Y-98033365D01*
X147260757Y-97999571D01*
X147225027Y-97992464D01*
X147216157Y-97990700D01*
X147216156Y-97990700D01*
X142886044Y-97990700D01*
X142841442Y-97999571D01*
X142841438Y-97999573D01*
X142790867Y-98033364D01*
X142790865Y-98033366D01*
X142757071Y-98083942D01*
X142748200Y-98128543D01*
X142748200Y-99178655D01*
X141526600Y-99178655D01*
X141526600Y-96638655D01*
X142748200Y-96638655D01*
X142757071Y-96683257D01*
X142757073Y-96683261D01*
X142790864Y-96733832D01*
X142790865Y-96733833D01*
X142790866Y-96733834D01*
X142841442Y-96767628D01*
X142886043Y-96776500D01*
X147216156Y-96776499D01*
X147260758Y-96767628D01*
X147311334Y-96733834D01*
X147345128Y-96683258D01*
X147354000Y-96638657D01*
X147353999Y-96405106D01*
X147373212Y-96345976D01*
X147374316Y-96344485D01*
X147375340Y-96343127D01*
X147375342Y-96343127D01*
X147394864Y-96317273D01*
X147399427Y-96312030D01*
X148020161Y-95691297D01*
X148031600Y-95683096D01*
X148030829Y-95682075D01*
X148038269Y-95676456D01*
X148038269Y-95676455D01*
X148038271Y-95676455D01*
X148071196Y-95640336D01*
X148072757Y-95638701D01*
X148086983Y-95624477D01*
X148089027Y-95621491D01*
X148093346Y-95616040D01*
X148115167Y-95592104D01*
X148118768Y-95582805D01*
X148129588Y-95562281D01*
X148130944Y-95560300D01*
X148135224Y-95554054D01*
X148142639Y-95522523D01*
X148144697Y-95515875D01*
X148156400Y-95485670D01*
X148156400Y-95475686D01*
X148159071Y-95452657D01*
X148161356Y-95442944D01*
X148156882Y-95410876D01*
X148156400Y-95403921D01*
X148156400Y-95265903D01*
X148175613Y-95206772D01*
X148195756Y-95186093D01*
X148222824Y-95165324D01*
X148306367Y-95056449D01*
X148358884Y-94929660D01*
X148376797Y-94793602D01*
X148595403Y-94793602D01*
X148613315Y-94929659D01*
X148665832Y-95056447D01*
X148665834Y-95056451D01*
X148749373Y-95165321D01*
X148749374Y-95165322D01*
X148749376Y-95165324D01*
X148776442Y-95186092D01*
X148811657Y-95237330D01*
X148815800Y-95265903D01*
X148815800Y-95362388D01*
X148813544Y-95376286D01*
X148814778Y-95376458D01*
X148813490Y-95385690D01*
X148815746Y-95434496D01*
X148815800Y-95436819D01*
X148815800Y-95456894D01*
X148816462Y-95460433D01*
X148817264Y-95467353D01*
X148818761Y-95499704D01*
X148818762Y-95499709D01*
X148822792Y-95508837D01*
X148829650Y-95530982D01*
X148831484Y-95540796D01*
X148831485Y-95540797D01*
X148848536Y-95568335D01*
X148851783Y-95574496D01*
X148864865Y-95604124D01*
X148871923Y-95611182D01*
X148886319Y-95629357D01*
X148891572Y-95637841D01*
X148917415Y-95657357D01*
X148922676Y-95661935D01*
X149543403Y-96282663D01*
X149551635Y-96294084D01*
X149552629Y-96293334D01*
X149558245Y-96300771D01*
X149594336Y-96333672D01*
X149596017Y-96335277D01*
X149610222Y-96349482D01*
X149611868Y-96350849D01*
X149612347Y-96351607D01*
X149613511Y-96352771D01*
X149613248Y-96353033D01*
X149645086Y-96403406D01*
X149648200Y-96428244D01*
X149648200Y-96638656D01*
X149657071Y-96683257D01*
X149657073Y-96683261D01*
X149690864Y-96733832D01*
X149690865Y-96733833D01*
X149690866Y-96733834D01*
X149741442Y-96767628D01*
X149786043Y-96776500D01*
X154116156Y-96776499D01*
X154160758Y-96767628D01*
X154211334Y-96733834D01*
X154245128Y-96683258D01*
X154254000Y-96638657D01*
X154253999Y-95588544D01*
X154245128Y-95543942D01*
X154245126Y-95543938D01*
X154211335Y-95493367D01*
X154211333Y-95493365D01*
X154160757Y-95459571D01*
X154124231Y-95452306D01*
X154116157Y-95450700D01*
X154116156Y-95450700D01*
X151307429Y-95450700D01*
X151248298Y-95431487D01*
X151211753Y-95381187D01*
X151211753Y-95319013D01*
X151248298Y-95268713D01*
X151268927Y-95257160D01*
X151288949Y-95248867D01*
X151397824Y-95165324D01*
X151481367Y-95056449D01*
X151533884Y-94929660D01*
X151551797Y-94793600D01*
X151547344Y-94759774D01*
X151558674Y-94698642D01*
X151575945Y-94675512D01*
X151985494Y-94265963D01*
X152040892Y-94237738D01*
X152056629Y-94236499D01*
X154116156Y-94236499D01*
X154160758Y-94227628D01*
X154211334Y-94193834D01*
X154245128Y-94143258D01*
X154254000Y-94098657D01*
X154253999Y-93048544D01*
X154245128Y-93003942D01*
X154245126Y-93003938D01*
X154211335Y-92953367D01*
X154211333Y-92953365D01*
X154160757Y-92919571D01*
X154125027Y-92912464D01*
X154116157Y-92910700D01*
X154116156Y-92910700D01*
X149786044Y-92910700D01*
X149741442Y-92919571D01*
X149741438Y-92919573D01*
X149690867Y-92953364D01*
X149690865Y-92953366D01*
X149657071Y-93003942D01*
X149648200Y-93048543D01*
X149648200Y-94098655D01*
X149657071Y-94143257D01*
X149657073Y-94143261D01*
X149690864Y-94193832D01*
X149690865Y-94193833D01*
X149690866Y-94193834D01*
X149741442Y-94227628D01*
X149786043Y-94236500D01*
X150599607Y-94236499D01*
X150658737Y-94255712D01*
X150695282Y-94306012D01*
X150695282Y-94368186D01*
X150660851Y-94416907D01*
X150660848Y-94416910D01*
X150654376Y-94421876D01*
X150654373Y-94421879D01*
X150570834Y-94530749D01*
X150570830Y-94530756D01*
X150518315Y-94657540D01*
X150500403Y-94793597D01*
X150500403Y-94793602D01*
X150518315Y-94929659D01*
X150570832Y-95056447D01*
X150570834Y-95056451D01*
X150654373Y-95165321D01*
X150654378Y-95165326D01*
X150763248Y-95248865D01*
X150763251Y-95248867D01*
X150783268Y-95257158D01*
X150830545Y-95297535D01*
X150845061Y-95357991D01*
X150821269Y-95415433D01*
X150768258Y-95447920D01*
X150744771Y-95450700D01*
X149786044Y-95450700D01*
X149741442Y-95459571D01*
X149715608Y-95476834D01*
X149655768Y-95493710D01*
X149597436Y-95472191D01*
X149588582Y-95464323D01*
X149539693Y-95415434D01*
X149458939Y-95334679D01*
X149430712Y-95279281D01*
X149440439Y-95217872D01*
X149468834Y-95183732D01*
X149492821Y-95165326D01*
X149492824Y-95165324D01*
X149576367Y-95056449D01*
X149628884Y-94929660D01*
X149646797Y-94793600D01*
X149628884Y-94657540D01*
X149576367Y-94530752D01*
X149492824Y-94421876D01*
X149492823Y-94421875D01*
X149492821Y-94421873D01*
X149383951Y-94338334D01*
X149383947Y-94338332D01*
X149257159Y-94285815D01*
X149121103Y-94267903D01*
X149121097Y-94267903D01*
X148985040Y-94285815D01*
X148858256Y-94338330D01*
X148858249Y-94338334D01*
X148749379Y-94421873D01*
X148749373Y-94421879D01*
X148665834Y-94530749D01*
X148665830Y-94530756D01*
X148613315Y-94657540D01*
X148595403Y-94793597D01*
X148595403Y-94793602D01*
X148376797Y-94793602D01*
X148376797Y-94793600D01*
X148358884Y-94657540D01*
X148306367Y-94530752D01*
X148222824Y-94421876D01*
X148222823Y-94421875D01*
X148222821Y-94421873D01*
X148113951Y-94338334D01*
X148113947Y-94338332D01*
X147987159Y-94285815D01*
X147851103Y-94267903D01*
X147851097Y-94267903D01*
X147715040Y-94285815D01*
X147588256Y-94338330D01*
X147588249Y-94338334D01*
X147479379Y-94421873D01*
X147479373Y-94421879D01*
X147395834Y-94530749D01*
X147395830Y-94530756D01*
X147343315Y-94657540D01*
X147325403Y-94793597D01*
X147325403Y-94793602D01*
X147343315Y-94929659D01*
X147395832Y-95056447D01*
X147395834Y-95056451D01*
X147479373Y-95165321D01*
X147479377Y-95165325D01*
X147503366Y-95183732D01*
X147538583Y-95234971D01*
X147536956Y-95297124D01*
X147513261Y-95334679D01*
X147395633Y-95452306D01*
X147340235Y-95480533D01*
X147278826Y-95470806D01*
X147268610Y-95464818D01*
X147260758Y-95459572D01*
X147247270Y-95456889D01*
X147216157Y-95450700D01*
X147216156Y-95450700D01*
X146227430Y-95450700D01*
X146168299Y-95431487D01*
X146131754Y-95381187D01*
X146131754Y-95319013D01*
X146168299Y-95268713D01*
X146188927Y-95257160D01*
X146208949Y-95248867D01*
X146317824Y-95165324D01*
X146401367Y-95056449D01*
X146453884Y-94929660D01*
X146471797Y-94793600D01*
X146453884Y-94657540D01*
X146401367Y-94530752D01*
X146317824Y-94421876D01*
X146317823Y-94421875D01*
X146317821Y-94421873D01*
X146311353Y-94416910D01*
X146276137Y-94365671D01*
X146277764Y-94303518D01*
X146315613Y-94254192D01*
X146372594Y-94236499D01*
X147216156Y-94236499D01*
X147260758Y-94227628D01*
X147311334Y-94193834D01*
X147345128Y-94143258D01*
X147354000Y-94098657D01*
X147353999Y-93048544D01*
X147345128Y-93003942D01*
X147345126Y-93003938D01*
X147311335Y-92953367D01*
X147311333Y-92953365D01*
X147260757Y-92919571D01*
X147225027Y-92912464D01*
X147216157Y-92910700D01*
X147216156Y-92910700D01*
X142886044Y-92910700D01*
X142841442Y-92919571D01*
X142841438Y-92919573D01*
X142790867Y-92953364D01*
X142790865Y-92953366D01*
X142757071Y-93003942D01*
X142748200Y-93048543D01*
X142748200Y-94098655D01*
X142757071Y-94143257D01*
X142757073Y-94143261D01*
X142790864Y-94193832D01*
X142790865Y-94193833D01*
X142790866Y-94193834D01*
X142841442Y-94227628D01*
X142886043Y-94236500D01*
X144915570Y-94236499D01*
X144974701Y-94255712D01*
X144986705Y-94265964D01*
X145396251Y-94675510D01*
X145424477Y-94730908D01*
X145424856Y-94759774D01*
X145420402Y-94793602D01*
X145438315Y-94929659D01*
X145490832Y-95056447D01*
X145490834Y-95056451D01*
X145574373Y-95165321D01*
X145574378Y-95165326D01*
X145683248Y-95248865D01*
X145683251Y-95248867D01*
X145703268Y-95257158D01*
X145750545Y-95297536D01*
X145765060Y-95357992D01*
X145741267Y-95415434D01*
X145688256Y-95447920D01*
X145664770Y-95450700D01*
X142886044Y-95450700D01*
X142841442Y-95459571D01*
X142841438Y-95459573D01*
X142790867Y-95493364D01*
X142790865Y-95493366D01*
X142757071Y-95543942D01*
X142748200Y-95588543D01*
X142748200Y-96638655D01*
X141526600Y-96638655D01*
X141526600Y-86129700D01*
X141545813Y-86070569D01*
X141596113Y-86034024D01*
X141627200Y-86029100D01*
X155375000Y-86029100D01*
X155434131Y-86048313D01*
G37*
%TD.AperFunction*%
%TD*%
M02*
