%TF.GenerationSoftware,KiCad,Pcbnew,7.0.7-dirty*%
%TF.CreationDate,2023-09-27T11:30:23-05:00*%
%TF.ProjectId,BBB_JTAG_CTI20_SMT_ARM20_SMT,4242425f-4a54-4414-975f-43544932305f,rev?*%
%TF.SameCoordinates,Original*%
%TF.FileFunction,Copper,L2,Bot*%
%TF.FilePolarity,Positive*%
%FSLAX46Y46*%
G04 Gerber Fmt 4.6, Leading zero omitted, Abs format (unit mm)*
G04 Created by KiCad (PCBNEW 7.0.7-dirty) date 2023-09-27 11:30:23*
%MOMM*%
%LPD*%
G01*
G04 APERTURE LIST*
%TA.AperFunction,SMDPad,CuDef*%
%ADD10R,1.650000X0.680000*%
%TD*%
%TA.AperFunction,ViaPad*%
%ADD11C,0.736600*%
%TD*%
%TA.AperFunction,Conductor*%
%ADD12C,0.304800*%
%TD*%
G04 APERTURE END LIST*
D10*
%TO.P,P1,19*%
%TO.N,N/C*%
X145576100Y-110718600D03*
%TO.P,P1,17*%
X145576100Y-109448600D03*
%TO.P,P1,15*%
%TO.N,SRST_N*%
X145576100Y-108178600D03*
%TO.P,P1,13*%
%TO.N,EMU0*%
X145576100Y-106908600D03*
%TO.P,P1,11*%
%TO.N,TCK*%
X145576100Y-105638600D03*
%TO.P,P1,9*%
%TO.N,RTCK*%
X145576100Y-104368600D03*
%TO.P,P1,7*%
%TO.N,TDO*%
X145576100Y-103098600D03*
%TO.P,P1,5*%
%TO.N,VDD*%
X145576100Y-101828600D03*
%TO.P,P1,3*%
%TO.N,TDI*%
X145576100Y-100558600D03*
%TO.P,P1,20*%
%TO.N,GND*%
X151426100Y-110718600D03*
%TO.P,P1,18*%
%TO.N,N/C*%
X151426100Y-109448600D03*
%TO.P,P1,16*%
%TO.N,GND*%
X151426100Y-108178600D03*
%TO.P,P1,14*%
%TO.N,EMU1*%
X151426100Y-106908600D03*
%TO.P,P1,12*%
%TO.N,GND*%
X151426100Y-105638600D03*
%TO.P,P1,10*%
X151426100Y-104368600D03*
%TO.P,P1,8*%
X151426100Y-103098600D03*
%TO.P,P1,6*%
%TO.N,N/C*%
X151426100Y-101828600D03*
%TO.P,P1,4*%
%TO.N,GND*%
X151426100Y-100558600D03*
%TO.P,P1,1*%
%TO.N,TMS*%
X145576100Y-99288600D03*
%TO.P,P1,2*%
%TO.N,TRST_N*%
X151426100Y-99288600D03*
%TD*%
D11*
%TO.N,GND*%
X148486100Y-116383600D03*
X148486100Y-113843600D03*
X148486100Y-111303600D03*
%TO.N,TRST_N*%
X149121100Y-94793600D03*
%TO.N,SRST_N*%
X148486100Y-109716100D03*
%TO.N,TCK*%
X149121100Y-104953600D03*
%TO.N,RTCK*%
X147851100Y-104953600D03*
%TO.N,TDO*%
X148486100Y-108128600D03*
%TO.N,VDD*%
X147851100Y-94793600D03*
%TO.N,TDI*%
X149121100Y-99873600D03*
%TO.N,TMS*%
X147851100Y-99873600D03*
%TD*%
D12*
%TO.N,TRST_N*%
X149121100Y-96698600D02*
X149121100Y-94793600D01*
X151426100Y-99003600D02*
X149121100Y-96698600D01*
X151426100Y-99288600D02*
X151426100Y-99003600D01*
X151476100Y-99238600D02*
X151426100Y-99288600D01*
%TO.N,SRST_N*%
X145626100Y-108128600D02*
X145576100Y-108178600D01*
X147216100Y-108128600D02*
X145626100Y-108128600D01*
X148486100Y-109398600D02*
X147216100Y-108128600D01*
X148486100Y-109716100D02*
X148486100Y-109398600D01*
%TO.N,TCK*%
X145626100Y-105588600D02*
X145576100Y-105638600D01*
X146898600Y-105588600D02*
X145626100Y-105588600D01*
X147216100Y-105906100D02*
X146898600Y-105588600D01*
X148803600Y-105906100D02*
X147216100Y-105906100D01*
X149121100Y-105588600D02*
X148803600Y-105906100D01*
X149121100Y-104953600D02*
X149121100Y-105588600D01*
%TO.N,RTCK*%
X147266100Y-104368600D02*
X147851100Y-104953600D01*
X145576100Y-104368600D02*
X147266100Y-104368600D01*
%TO.N,TDO*%
X150073600Y-106541100D02*
X148486100Y-108128600D01*
X150073600Y-104001100D02*
X150073600Y-106541100D01*
X149171100Y-103098600D02*
X150073600Y-104001100D01*
X145576100Y-103098600D02*
X149171100Y-103098600D01*
%TO.N,VDD*%
X147851100Y-96698600D02*
X147851100Y-94793600D01*
X150073600Y-98921100D02*
X147851100Y-96698600D01*
X145626100Y-101778600D02*
X145576100Y-101828600D01*
X149121100Y-101778600D02*
X145626100Y-101778600D01*
X150073600Y-100826100D02*
X149121100Y-101778600D01*
X150073600Y-98921100D02*
X150073600Y-100826100D01*
%TO.N,TDI*%
X145626100Y-100508600D02*
X145576100Y-100558600D01*
X146898600Y-100508600D02*
X145626100Y-100508600D01*
X147216100Y-100826100D02*
X146898600Y-100508600D01*
X148803600Y-100826100D02*
X147216100Y-100826100D01*
X149121100Y-100508600D02*
X148803600Y-100826100D01*
X149121100Y-99873600D02*
X149121100Y-100508600D01*
%TO.N,TMS*%
X147266100Y-99288600D02*
X147851100Y-99873600D01*
X145576100Y-99288600D02*
X147266100Y-99288600D01*
%TD*%
%TA.AperFunction,Conductor*%
%TO.N,GND*%
G36*
X155434131Y-86048313D02*
G01*
X155470676Y-86098613D01*
X155475600Y-86129700D01*
X155475600Y-123877500D01*
X155456387Y-123936631D01*
X155406087Y-123973176D01*
X155375000Y-123978100D01*
X141627200Y-123978100D01*
X141568069Y-123958887D01*
X141531524Y-123908587D01*
X141526600Y-123877500D01*
X141526600Y-111515000D01*
X150952424Y-111515000D01*
X151899776Y-111515000D01*
X151426100Y-111041324D01*
X150952424Y-111515000D01*
X141526600Y-111515000D01*
X141526600Y-111073655D01*
X144598200Y-111073655D01*
X144607071Y-111118257D01*
X144607073Y-111118261D01*
X144640864Y-111168832D01*
X144640865Y-111168833D01*
X144640866Y-111168834D01*
X144691442Y-111202628D01*
X144736043Y-111211500D01*
X146416156Y-111211499D01*
X146460758Y-111202628D01*
X146511334Y-111168834D01*
X146545128Y-111118258D01*
X146554000Y-111073657D01*
X146553999Y-110363544D01*
X146545128Y-110318942D01*
X146545126Y-110318938D01*
X146511335Y-110268367D01*
X146511333Y-110268365D01*
X146460757Y-110234571D01*
X146425027Y-110227464D01*
X146416157Y-110225700D01*
X146416156Y-110225700D01*
X144736044Y-110225700D01*
X144691442Y-110234571D01*
X144691438Y-110234573D01*
X144640867Y-110268364D01*
X144640865Y-110268366D01*
X144607071Y-110318942D01*
X144598200Y-110363543D01*
X144598200Y-111073655D01*
X141526600Y-111073655D01*
X141526600Y-109803655D01*
X144598200Y-109803655D01*
X144607071Y-109848257D01*
X144607073Y-109848261D01*
X144640864Y-109898832D01*
X144640865Y-109898833D01*
X144640866Y-109898834D01*
X144691442Y-109932628D01*
X144736043Y-109941500D01*
X146416156Y-109941499D01*
X146460758Y-109932628D01*
X146511334Y-109898834D01*
X146545128Y-109848258D01*
X146554000Y-109803657D01*
X146553999Y-109093544D01*
X146545128Y-109048942D01*
X146545126Y-109048938D01*
X146511335Y-108998367D01*
X146511333Y-108998365D01*
X146460757Y-108964571D01*
X146425027Y-108957464D01*
X146416157Y-108955700D01*
X146416156Y-108955700D01*
X144736044Y-108955700D01*
X144691442Y-108964571D01*
X144691438Y-108964573D01*
X144640867Y-108998364D01*
X144640865Y-108998366D01*
X144607071Y-109048942D01*
X144598200Y-109093543D01*
X144598200Y-109803655D01*
X141526600Y-109803655D01*
X141526600Y-108533655D01*
X144598200Y-108533655D01*
X144607071Y-108578257D01*
X144607073Y-108578261D01*
X144640864Y-108628832D01*
X144640865Y-108628833D01*
X144640866Y-108628834D01*
X144691442Y-108662628D01*
X144736043Y-108671500D01*
X146416156Y-108671499D01*
X146460758Y-108662628D01*
X146511334Y-108628834D01*
X146545128Y-108578258D01*
X146554000Y-108533657D01*
X146554000Y-108533651D01*
X146554485Y-108528737D01*
X146555829Y-108528869D01*
X146573213Y-108475369D01*
X146623513Y-108438824D01*
X146654600Y-108433900D01*
X147047971Y-108433900D01*
X147107102Y-108453113D01*
X147119106Y-108463365D01*
X148006194Y-109350454D01*
X148034420Y-109405852D01*
X148028001Y-109460087D01*
X147978315Y-109580039D01*
X147960403Y-109716097D01*
X147960403Y-109716102D01*
X147978315Y-109852159D01*
X148030832Y-109978947D01*
X148030834Y-109978951D01*
X148114373Y-110087821D01*
X148114378Y-110087826D01*
X148223248Y-110171365D01*
X148223251Y-110171367D01*
X148350039Y-110223884D01*
X148350040Y-110223884D01*
X148486097Y-110241797D01*
X148486100Y-110241797D01*
X148486103Y-110241797D01*
X148588144Y-110228362D01*
X148622160Y-110223884D01*
X148748949Y-110171367D01*
X148857824Y-110087824D01*
X148941367Y-109978949D01*
X148993884Y-109852160D01*
X149011797Y-109716100D01*
X148993884Y-109580040D01*
X148941367Y-109453252D01*
X148857824Y-109344376D01*
X148857823Y-109344375D01*
X148784557Y-109288155D01*
X148753769Y-109248975D01*
X148742334Y-109223075D01*
X148735276Y-109216017D01*
X148720881Y-109197844D01*
X148715627Y-109189358D01*
X148689783Y-109169841D01*
X148684525Y-109165266D01*
X148335727Y-108816468D01*
X148307501Y-108761070D01*
X148317227Y-108699662D01*
X148361191Y-108655698D01*
X148419993Y-108645594D01*
X148486097Y-108654297D01*
X148486100Y-108654297D01*
X148486103Y-108654297D01*
X148588145Y-108640862D01*
X148622160Y-108636384D01*
X148748949Y-108583867D01*
X148857824Y-108500324D01*
X148941367Y-108391449D01*
X148993884Y-108264660D01*
X149003094Y-108194707D01*
X149011797Y-108128602D01*
X149011797Y-108128598D01*
X149007344Y-108094776D01*
X149018674Y-108033642D01*
X149035945Y-108010512D01*
X150242659Y-106803798D01*
X150254099Y-106795595D01*
X150253329Y-106794575D01*
X150260768Y-106788957D01*
X150260768Y-106788956D01*
X150260771Y-106788955D01*
X150273255Y-106775259D01*
X150327286Y-106744504D01*
X150389079Y-106751381D01*
X150435028Y-106793266D01*
X150448200Y-106843032D01*
X150448200Y-107263655D01*
X150458099Y-107313423D01*
X150450790Y-107375166D01*
X150408585Y-107420821D01*
X150392663Y-107428000D01*
X150385431Y-107430530D01*
X150274731Y-107512231D01*
X150193031Y-107622930D01*
X150147592Y-107752791D01*
X150144700Y-107783636D01*
X150144700Y-108573563D01*
X150147592Y-108604408D01*
X150193031Y-108734269D01*
X150274731Y-108844968D01*
X150385430Y-108926668D01*
X150392657Y-108929197D01*
X150442125Y-108966861D01*
X150460007Y-109026408D01*
X150458099Y-109043778D01*
X150448200Y-109093543D01*
X150448200Y-109803655D01*
X150458099Y-109853423D01*
X150450790Y-109915166D01*
X150408585Y-109960821D01*
X150392663Y-109968000D01*
X150385431Y-109970530D01*
X150274731Y-110052231D01*
X150193031Y-110162930D01*
X150147592Y-110292791D01*
X150144700Y-110323636D01*
X150144700Y-111113563D01*
X150147592Y-111144408D01*
X150193031Y-111274269D01*
X150274731Y-111384968D01*
X150368097Y-111453876D01*
X150368098Y-111453876D01*
X151354964Y-110467010D01*
X151410362Y-110438784D01*
X151471770Y-110448510D01*
X151497234Y-110467010D01*
X152484100Y-111453876D01*
X152484101Y-111453876D01*
X152577468Y-111384968D01*
X152659168Y-111274269D01*
X152704607Y-111144408D01*
X152707500Y-111113563D01*
X152707500Y-110323636D01*
X152704607Y-110292791D01*
X152659168Y-110162930D01*
X152577468Y-110052231D01*
X152466769Y-109970531D01*
X152459538Y-109968001D01*
X152410072Y-109930335D01*
X152392192Y-109870787D01*
X152394100Y-109853419D01*
X152395125Y-109848261D01*
X152395128Y-109848258D01*
X152404000Y-109803657D01*
X152403999Y-109093544D01*
X152395128Y-109048942D01*
X152395127Y-109048940D01*
X152394100Y-109043777D01*
X152401408Y-108982034D01*
X152443613Y-108936378D01*
X152459544Y-108929196D01*
X152466770Y-108926667D01*
X152577468Y-108844968D01*
X152659168Y-108734269D01*
X152704607Y-108604408D01*
X152707500Y-108573563D01*
X152707500Y-107783636D01*
X152704607Y-107752791D01*
X152659168Y-107622930D01*
X152577468Y-107512231D01*
X152466769Y-107430531D01*
X152459538Y-107428001D01*
X152410072Y-107390335D01*
X152392192Y-107330787D01*
X152394100Y-107313419D01*
X152395125Y-107308261D01*
X152395128Y-107308258D01*
X152404000Y-107263657D01*
X152403999Y-106553544D01*
X152395128Y-106508942D01*
X152395127Y-106508940D01*
X152394100Y-106503777D01*
X152401408Y-106442034D01*
X152443613Y-106396378D01*
X152459544Y-106389196D01*
X152466770Y-106386667D01*
X152577468Y-106304968D01*
X152659168Y-106194269D01*
X152704607Y-106064408D01*
X152707500Y-106033563D01*
X152707500Y-105243636D01*
X152704607Y-105212791D01*
X152659170Y-105082935D01*
X152659167Y-105082930D01*
X152644708Y-105063339D01*
X152625053Y-105004354D01*
X152643822Y-104945080D01*
X152644708Y-104943861D01*
X152659167Y-104924269D01*
X152659170Y-104924264D01*
X152704607Y-104794408D01*
X152707500Y-104763563D01*
X152707500Y-103973636D01*
X152704607Y-103942791D01*
X152659168Y-103812930D01*
X152659167Y-103812928D01*
X152644708Y-103793337D01*
X152625054Y-103734351D01*
X152643824Y-103675078D01*
X152644710Y-103673859D01*
X152659168Y-103654269D01*
X152704607Y-103524408D01*
X152707500Y-103493563D01*
X152707500Y-102703636D01*
X152704607Y-102672791D01*
X152659168Y-102542930D01*
X152577468Y-102432231D01*
X152466769Y-102350531D01*
X152459538Y-102348001D01*
X152410072Y-102310335D01*
X152392192Y-102250787D01*
X152394100Y-102233419D01*
X152395125Y-102228261D01*
X152395128Y-102228258D01*
X152404000Y-102183657D01*
X152403999Y-101473544D01*
X152395128Y-101428942D01*
X152395127Y-101428940D01*
X152394100Y-101423777D01*
X152401408Y-101362034D01*
X152443613Y-101316378D01*
X152459544Y-101309196D01*
X152466770Y-101306667D01*
X152577468Y-101224968D01*
X152659168Y-101114269D01*
X152704607Y-100984408D01*
X152707500Y-100953563D01*
X152707500Y-100163636D01*
X152704607Y-100132791D01*
X152659168Y-100002930D01*
X152577468Y-99892231D01*
X152466769Y-99810531D01*
X152459538Y-99808001D01*
X152410072Y-99770335D01*
X152392192Y-99710787D01*
X152394100Y-99693419D01*
X152395125Y-99688261D01*
X152395128Y-99688258D01*
X152404000Y-99643657D01*
X152403999Y-98933544D01*
X152395128Y-98888942D01*
X152395126Y-98888938D01*
X152361335Y-98838367D01*
X152361333Y-98838365D01*
X152310757Y-98804571D01*
X152275027Y-98797464D01*
X152266157Y-98795700D01*
X152266156Y-98795700D01*
X151691629Y-98795700D01*
X151632498Y-98776487D01*
X151620494Y-98766235D01*
X149455865Y-96601605D01*
X149427639Y-96546207D01*
X149426400Y-96530470D01*
X149426400Y-95265903D01*
X149445613Y-95206772D01*
X149465756Y-95186093D01*
X149492824Y-95165324D01*
X149576367Y-95056449D01*
X149628884Y-94929660D01*
X149646797Y-94793600D01*
X149628884Y-94657540D01*
X149576367Y-94530752D01*
X149492824Y-94421876D01*
X149492823Y-94421875D01*
X149492821Y-94421873D01*
X149383951Y-94338334D01*
X149383947Y-94338332D01*
X149257159Y-94285815D01*
X149121103Y-94267903D01*
X149121097Y-94267903D01*
X148985040Y-94285815D01*
X148858256Y-94338330D01*
X148858249Y-94338334D01*
X148749379Y-94421873D01*
X148749373Y-94421879D01*
X148665834Y-94530749D01*
X148665830Y-94530756D01*
X148613315Y-94657540D01*
X148595403Y-94793597D01*
X148595403Y-94793602D01*
X148613315Y-94929659D01*
X148665832Y-95056447D01*
X148665834Y-95056451D01*
X148749373Y-95165321D01*
X148749374Y-95165322D01*
X148749376Y-95165324D01*
X148776442Y-95186092D01*
X148811657Y-95237330D01*
X148815800Y-95265903D01*
X148815800Y-96632388D01*
X148813544Y-96646286D01*
X148814778Y-96646458D01*
X148813490Y-96655690D01*
X148815746Y-96704496D01*
X148815800Y-96706819D01*
X148815800Y-96726894D01*
X148816462Y-96730433D01*
X148817264Y-96737353D01*
X148818761Y-96769704D01*
X148818762Y-96769709D01*
X148822792Y-96778837D01*
X148829650Y-96800982D01*
X148831484Y-96810796D01*
X148831485Y-96810797D01*
X148848536Y-96838335D01*
X148851783Y-96844496D01*
X148864865Y-96874124D01*
X148871923Y-96881182D01*
X148886319Y-96899357D01*
X148891572Y-96907841D01*
X148917415Y-96927357D01*
X148922676Y-96931935D01*
X150620109Y-98629368D01*
X150648335Y-98684766D01*
X150638609Y-98746174D01*
X150594645Y-98790138D01*
X150568600Y-98799170D01*
X150541441Y-98804572D01*
X150541439Y-98804573D01*
X150500070Y-98832215D01*
X150440230Y-98849091D01*
X150381899Y-98827572D01*
X150358646Y-98801524D01*
X150346166Y-98781366D01*
X150342915Y-98775198D01*
X150329835Y-98745575D01*
X150322774Y-98738514D01*
X150308376Y-98720336D01*
X150303127Y-98711858D01*
X150277290Y-98692347D01*
X150272029Y-98687769D01*
X148185865Y-96601604D01*
X148157639Y-96546206D01*
X148156400Y-96530469D01*
X148156400Y-95265903D01*
X148175613Y-95206772D01*
X148195756Y-95186093D01*
X148222824Y-95165324D01*
X148306367Y-95056449D01*
X148358884Y-94929660D01*
X148376797Y-94793600D01*
X148358884Y-94657540D01*
X148306367Y-94530752D01*
X148222824Y-94421876D01*
X148222823Y-94421875D01*
X148222821Y-94421873D01*
X148113951Y-94338334D01*
X148113947Y-94338332D01*
X147987159Y-94285815D01*
X147851103Y-94267903D01*
X147851097Y-94267903D01*
X147715040Y-94285815D01*
X147588256Y-94338330D01*
X147588249Y-94338334D01*
X147479379Y-94421873D01*
X147479373Y-94421879D01*
X147395834Y-94530749D01*
X147395830Y-94530756D01*
X147343315Y-94657540D01*
X147325403Y-94793597D01*
X147325403Y-94793602D01*
X147343315Y-94929659D01*
X147395832Y-95056447D01*
X147395834Y-95056451D01*
X147479373Y-95165321D01*
X147479374Y-95165322D01*
X147479376Y-95165324D01*
X147506442Y-95186092D01*
X147541657Y-95237330D01*
X147545800Y-95265903D01*
X147545800Y-96632388D01*
X147543544Y-96646286D01*
X147544778Y-96646458D01*
X147543490Y-96655690D01*
X147545746Y-96704496D01*
X147545800Y-96706819D01*
X147545800Y-96726894D01*
X147546462Y-96730433D01*
X147547264Y-96737353D01*
X147548761Y-96769704D01*
X147548762Y-96769709D01*
X147552792Y-96778837D01*
X147559650Y-96800982D01*
X147561484Y-96810796D01*
X147561485Y-96810797D01*
X147578536Y-96838335D01*
X147581783Y-96844496D01*
X147594865Y-96874124D01*
X147601923Y-96881182D01*
X147616319Y-96899357D01*
X147621572Y-96907841D01*
X147647415Y-96927357D01*
X147652676Y-96931935D01*
X149738835Y-99018093D01*
X149767061Y-99073491D01*
X149768300Y-99089228D01*
X149768300Y-99568368D01*
X149749087Y-99627499D01*
X149698787Y-99664044D01*
X149636613Y-99664044D01*
X149586313Y-99627499D01*
X149580018Y-99616262D01*
X149579666Y-99616466D01*
X149576368Y-99610754D01*
X149576367Y-99610753D01*
X149576367Y-99610752D01*
X149492824Y-99501876D01*
X149492823Y-99501875D01*
X149492821Y-99501873D01*
X149383951Y-99418334D01*
X149383947Y-99418332D01*
X149257159Y-99365815D01*
X149121103Y-99347903D01*
X149121097Y-99347903D01*
X148985040Y-99365815D01*
X148858256Y-99418330D01*
X148858249Y-99418334D01*
X148749379Y-99501873D01*
X148749373Y-99501879D01*
X148665834Y-99610749D01*
X148665830Y-99610756D01*
X148613315Y-99737540D01*
X148595403Y-99873597D01*
X148595403Y-99873602D01*
X148613315Y-100009659D01*
X148665832Y-100136447D01*
X148665834Y-100136451D01*
X148749373Y-100245321D01*
X148749377Y-100245325D01*
X148773366Y-100263732D01*
X148808583Y-100314971D01*
X148806956Y-100377124D01*
X148783261Y-100414678D01*
X148706606Y-100491334D01*
X148651209Y-100519561D01*
X148635471Y-100520800D01*
X148156331Y-100520800D01*
X148097200Y-100501587D01*
X148060655Y-100451287D01*
X148060655Y-100389113D01*
X148097200Y-100338813D01*
X148108442Y-100332517D01*
X148108238Y-100332164D01*
X148113943Y-100328869D01*
X148113949Y-100328867D01*
X148222824Y-100245324D01*
X148306367Y-100136449D01*
X148358884Y-100009660D01*
X148376797Y-99873600D01*
X148364671Y-99781499D01*
X148358884Y-99737540D01*
X148306369Y-99610756D01*
X148306368Y-99610754D01*
X148306367Y-99610753D01*
X148306367Y-99610752D01*
X148222824Y-99501876D01*
X148222823Y-99501875D01*
X148222821Y-99501873D01*
X148113951Y-99418334D01*
X148113947Y-99418332D01*
X147987159Y-99365815D01*
X147851103Y-99347903D01*
X147851101Y-99347903D01*
X147851100Y-99347903D01*
X147823224Y-99351572D01*
X147817274Y-99352356D01*
X147756141Y-99341024D01*
X147733010Y-99323751D01*
X147528799Y-99119540D01*
X147520580Y-99108107D01*
X147519573Y-99108869D01*
X147513953Y-99101427D01*
X147490375Y-99079933D01*
X147477847Y-99068512D01*
X147476169Y-99066910D01*
X147461975Y-99052716D01*
X147459001Y-99050679D01*
X147453542Y-99046355D01*
X147429604Y-99024533D01*
X147429602Y-99024532D01*
X147420297Y-99020927D01*
X147399787Y-99010116D01*
X147391553Y-99004476D01*
X147360028Y-98997061D01*
X147353366Y-98994998D01*
X147349210Y-98993388D01*
X147323170Y-98983300D01*
X147323169Y-98983300D01*
X147313191Y-98983300D01*
X147290159Y-98980628D01*
X147280444Y-98978343D01*
X147280443Y-98978343D01*
X147268292Y-98980038D01*
X147248370Y-98982817D01*
X147241416Y-98983300D01*
X146646457Y-98983300D01*
X146587326Y-98964087D01*
X146550781Y-98913787D01*
X146547790Y-98902326D01*
X146547713Y-98901940D01*
X146545128Y-98888942D01*
X146545126Y-98888940D01*
X146545126Y-98888938D01*
X146511335Y-98838367D01*
X146511333Y-98838365D01*
X146460757Y-98804571D01*
X146425027Y-98797464D01*
X146416157Y-98795700D01*
X146416156Y-98795700D01*
X144736044Y-98795700D01*
X144691442Y-98804571D01*
X144691438Y-98804573D01*
X144640867Y-98838364D01*
X144640865Y-98838366D01*
X144607071Y-98888942D01*
X144598200Y-98933543D01*
X144598200Y-99643655D01*
X144607071Y-99688257D01*
X144607073Y-99688261D01*
X144640864Y-99738832D01*
X144640865Y-99738833D01*
X144640866Y-99738834D01*
X144691442Y-99772628D01*
X144736043Y-99781500D01*
X146416156Y-99781499D01*
X146460758Y-99772628D01*
X146511334Y-99738834D01*
X146545128Y-99688258D01*
X146547790Y-99674874D01*
X146578169Y-99620628D01*
X146634632Y-99594597D01*
X146646457Y-99593900D01*
X147097971Y-99593900D01*
X147157102Y-99613113D01*
X147169106Y-99623365D01*
X147301251Y-99755510D01*
X147329477Y-99810908D01*
X147329856Y-99839774D01*
X147325404Y-99873597D01*
X147325403Y-99873602D01*
X147343315Y-100009659D01*
X147395832Y-100136447D01*
X147395834Y-100136451D01*
X147479373Y-100245321D01*
X147479378Y-100245326D01*
X147588248Y-100328865D01*
X147593962Y-100332164D01*
X147592689Y-100334367D01*
X147631641Y-100367631D01*
X147646159Y-100428086D01*
X147622370Y-100485529D01*
X147569360Y-100518019D01*
X147545869Y-100520800D01*
X147384229Y-100520800D01*
X147325098Y-100501587D01*
X147313094Y-100491335D01*
X147161299Y-100339540D01*
X147153080Y-100328107D01*
X147152073Y-100328869D01*
X147146453Y-100321427D01*
X147110350Y-100288515D01*
X147108669Y-100286910D01*
X147094475Y-100272716D01*
X147091501Y-100270679D01*
X147086042Y-100266355D01*
X147062104Y-100244533D01*
X147062102Y-100244532D01*
X147052797Y-100240927D01*
X147032287Y-100230116D01*
X147024053Y-100224476D01*
X146992528Y-100217061D01*
X146985866Y-100214998D01*
X146981710Y-100213388D01*
X146955670Y-100203300D01*
X146955669Y-100203300D01*
X146945691Y-100203300D01*
X146922659Y-100200628D01*
X146912944Y-100198343D01*
X146912943Y-100198343D01*
X146900792Y-100200038D01*
X146880870Y-100202817D01*
X146873916Y-100203300D01*
X146628539Y-100203300D01*
X146569408Y-100184087D01*
X146544893Y-100158591D01*
X146542721Y-100155340D01*
X146511334Y-100108366D01*
X146466698Y-100078541D01*
X146460757Y-100074571D01*
X146425027Y-100067464D01*
X146416157Y-100065700D01*
X146416156Y-100065700D01*
X144736044Y-100065700D01*
X144691442Y-100074571D01*
X144691438Y-100074573D01*
X144640867Y-100108364D01*
X144640865Y-100108366D01*
X144607071Y-100158942D01*
X144598200Y-100203543D01*
X144598200Y-100913655D01*
X144607071Y-100958257D01*
X144607073Y-100958261D01*
X144640864Y-101008832D01*
X144640865Y-101008833D01*
X144640866Y-101008834D01*
X144691442Y-101042628D01*
X144736043Y-101051500D01*
X146416156Y-101051499D01*
X146460758Y-101042628D01*
X146511334Y-101008834D01*
X146545128Y-100958258D01*
X146554000Y-100913657D01*
X146554000Y-100913651D01*
X146554485Y-100908737D01*
X146555829Y-100908869D01*
X146573213Y-100855369D01*
X146623513Y-100818824D01*
X146654600Y-100813900D01*
X146730471Y-100813900D01*
X146789602Y-100833113D01*
X146801606Y-100843365D01*
X146953402Y-100995161D01*
X146961635Y-101006584D01*
X146962629Y-101005834D01*
X146968246Y-101013272D01*
X147004348Y-101046183D01*
X147006029Y-101047788D01*
X147020224Y-101061983D01*
X147023196Y-101064019D01*
X147028659Y-101068346D01*
X147052596Y-101090167D01*
X147061905Y-101093773D01*
X147082412Y-101104583D01*
X147090647Y-101110224D01*
X147122175Y-101117639D01*
X147128824Y-101119697D01*
X147159028Y-101131399D01*
X147159029Y-101131400D01*
X147159030Y-101131400D01*
X147169009Y-101131400D01*
X147192040Y-101134071D01*
X147201756Y-101136357D01*
X147233829Y-101131882D01*
X147240784Y-101131400D01*
X148737389Y-101131400D01*
X148751285Y-101133667D01*
X148751459Y-101132422D01*
X148760685Y-101133708D01*
X148760690Y-101133710D01*
X148790138Y-101132348D01*
X148809496Y-101131454D01*
X148811819Y-101131400D01*
X148831884Y-101131400D01*
X148831889Y-101131400D01*
X148835437Y-101130736D01*
X148842348Y-101129934D01*
X148874709Y-101128438D01*
X148883835Y-101124408D01*
X148905987Y-101117548D01*
X148915797Y-101115715D01*
X148943335Y-101098662D01*
X148949494Y-101095415D01*
X148979125Y-101082334D01*
X148986179Y-101075278D01*
X149004359Y-101060878D01*
X149012842Y-101055627D01*
X149032364Y-101029773D01*
X149036934Y-101024524D01*
X149152721Y-100908737D01*
X149290159Y-100771298D01*
X149301599Y-100763095D01*
X149300829Y-100762075D01*
X149308269Y-100756456D01*
X149308269Y-100756455D01*
X149308271Y-100756455D01*
X149341207Y-100720324D01*
X149342768Y-100718689D01*
X149356983Y-100704476D01*
X149359020Y-100701500D01*
X149363345Y-100696041D01*
X149385165Y-100672106D01*
X149385164Y-100672106D01*
X149385167Y-100672104D01*
X149388772Y-100662796D01*
X149399584Y-100642285D01*
X149405224Y-100634053D01*
X149412638Y-100602526D01*
X149414699Y-100595870D01*
X149426400Y-100565670D01*
X149426400Y-100555691D01*
X149429072Y-100532658D01*
X149431357Y-100522944D01*
X149426882Y-100490871D01*
X149426400Y-100483915D01*
X149426400Y-100345903D01*
X149445613Y-100286772D01*
X149465756Y-100266093D01*
X149492824Y-100245324D01*
X149576367Y-100136449D01*
X149576369Y-100136443D01*
X149579664Y-100130738D01*
X149581867Y-100132010D01*
X149615131Y-100093059D01*
X149675586Y-100078541D01*
X149733029Y-100102330D01*
X149765519Y-100155340D01*
X149768300Y-100178831D01*
X149768300Y-100657970D01*
X149749087Y-100717101D01*
X149738835Y-100729105D01*
X149024106Y-101443835D01*
X148968708Y-101472061D01*
X148952971Y-101473300D01*
X146628539Y-101473300D01*
X146569408Y-101454087D01*
X146544893Y-101428591D01*
X146511334Y-101378366D01*
X146464184Y-101346861D01*
X146460757Y-101344571D01*
X146425027Y-101337464D01*
X146416157Y-101335700D01*
X146416156Y-101335700D01*
X144736044Y-101335700D01*
X144691442Y-101344571D01*
X144691438Y-101344573D01*
X144640867Y-101378364D01*
X144640865Y-101378366D01*
X144607071Y-101428942D01*
X144598200Y-101473543D01*
X144598200Y-102183655D01*
X144607071Y-102228257D01*
X144607073Y-102228261D01*
X144640864Y-102278832D01*
X144640865Y-102278833D01*
X144640866Y-102278834D01*
X144691442Y-102312628D01*
X144736043Y-102321500D01*
X146416156Y-102321499D01*
X146460758Y-102312628D01*
X146511334Y-102278834D01*
X146545128Y-102228258D01*
X146554000Y-102183657D01*
X146554000Y-102183651D01*
X146554485Y-102178737D01*
X146555829Y-102178869D01*
X146573213Y-102125369D01*
X146623513Y-102088824D01*
X146654600Y-102083900D01*
X149054889Y-102083900D01*
X149068785Y-102086167D01*
X149068959Y-102084922D01*
X149078185Y-102086208D01*
X149078190Y-102086210D01*
X149107638Y-102084848D01*
X149126996Y-102083954D01*
X149129319Y-102083900D01*
X149149384Y-102083900D01*
X149149389Y-102083900D01*
X149152937Y-102083236D01*
X149159848Y-102082434D01*
X149192209Y-102080938D01*
X149201335Y-102076908D01*
X149223487Y-102070048D01*
X149233297Y-102068215D01*
X149260835Y-102051162D01*
X149266994Y-102047915D01*
X149296625Y-102034834D01*
X149303679Y-102027778D01*
X149321859Y-102013378D01*
X149330342Y-102008127D01*
X149349864Y-101982273D01*
X149354434Y-101977024D01*
X150120631Y-101210827D01*
X150176026Y-101182603D01*
X150237434Y-101192329D01*
X150272703Y-101222222D01*
X150274729Y-101224967D01*
X150274730Y-101224968D01*
X150385430Y-101306668D01*
X150392657Y-101309197D01*
X150442125Y-101346861D01*
X150460007Y-101406408D01*
X150458099Y-101423778D01*
X150448200Y-101473543D01*
X150448200Y-102183655D01*
X150458099Y-102233423D01*
X150450790Y-102295166D01*
X150408585Y-102340821D01*
X150392663Y-102348000D01*
X150385431Y-102350530D01*
X150274731Y-102432231D01*
X150193031Y-102542930D01*
X150147592Y-102672791D01*
X150144700Y-102703636D01*
X150144700Y-103397570D01*
X150125487Y-103456701D01*
X150075187Y-103493246D01*
X150013013Y-103493246D01*
X149972965Y-103468705D01*
X149433799Y-102929540D01*
X149425580Y-102918107D01*
X149424573Y-102918869D01*
X149418953Y-102911427D01*
X149382850Y-102878515D01*
X149381169Y-102876910D01*
X149366975Y-102862716D01*
X149364001Y-102860679D01*
X149358542Y-102856355D01*
X149334604Y-102834533D01*
X149334602Y-102834532D01*
X149325297Y-102830927D01*
X149304787Y-102820116D01*
X149296553Y-102814476D01*
X149265028Y-102807061D01*
X149258366Y-102804998D01*
X149254210Y-102803388D01*
X149228170Y-102793300D01*
X149228169Y-102793300D01*
X149218191Y-102793300D01*
X149195159Y-102790628D01*
X149185444Y-102788343D01*
X149185443Y-102788343D01*
X149173292Y-102790038D01*
X149153370Y-102792817D01*
X149146416Y-102793300D01*
X146646457Y-102793300D01*
X146587326Y-102774087D01*
X146550781Y-102723787D01*
X146547790Y-102712326D01*
X146547713Y-102711940D01*
X146545128Y-102698942D01*
X146545126Y-102698940D01*
X146545126Y-102698938D01*
X146511335Y-102648367D01*
X146511333Y-102648365D01*
X146460757Y-102614571D01*
X146425027Y-102607464D01*
X146416157Y-102605700D01*
X146416156Y-102605700D01*
X144736044Y-102605700D01*
X144691442Y-102614571D01*
X144691438Y-102614573D01*
X144640867Y-102648364D01*
X144640865Y-102648366D01*
X144607071Y-102698942D01*
X144598200Y-102743543D01*
X144598200Y-103453655D01*
X144607071Y-103498257D01*
X144607073Y-103498261D01*
X144640864Y-103548832D01*
X144640865Y-103548833D01*
X144640866Y-103548834D01*
X144691442Y-103582628D01*
X144736043Y-103591500D01*
X146416156Y-103591499D01*
X146460758Y-103582628D01*
X146511334Y-103548834D01*
X146545128Y-103498258D01*
X146547790Y-103484874D01*
X146578169Y-103430628D01*
X146634632Y-103404597D01*
X146646457Y-103403900D01*
X149002971Y-103403900D01*
X149062102Y-103423113D01*
X149074106Y-103433365D01*
X149738835Y-104098094D01*
X149767061Y-104153492D01*
X149768300Y-104169229D01*
X149768300Y-104648368D01*
X149749087Y-104707499D01*
X149698787Y-104744044D01*
X149636613Y-104744044D01*
X149586313Y-104707499D01*
X149580018Y-104696262D01*
X149579666Y-104696466D01*
X149576368Y-104690754D01*
X149576367Y-104690753D01*
X149576367Y-104690752D01*
X149492824Y-104581876D01*
X149492823Y-104581875D01*
X149492821Y-104581873D01*
X149383951Y-104498334D01*
X149383947Y-104498332D01*
X149257159Y-104445815D01*
X149121103Y-104427903D01*
X149121097Y-104427903D01*
X148985040Y-104445815D01*
X148858256Y-104498330D01*
X148858249Y-104498334D01*
X148749379Y-104581873D01*
X148749373Y-104581879D01*
X148665834Y-104690749D01*
X148665830Y-104690756D01*
X148613315Y-104817540D01*
X148595403Y-104953597D01*
X148595403Y-104953602D01*
X148613315Y-105089659D01*
X148665832Y-105216447D01*
X148665834Y-105216451D01*
X148749373Y-105325321D01*
X148749377Y-105325325D01*
X148773366Y-105343732D01*
X148808583Y-105394971D01*
X148806956Y-105457124D01*
X148783261Y-105494678D01*
X148706606Y-105571334D01*
X148651209Y-105599561D01*
X148635471Y-105600800D01*
X148156331Y-105600800D01*
X148097200Y-105581587D01*
X148060655Y-105531287D01*
X148060655Y-105469113D01*
X148097200Y-105418813D01*
X148108442Y-105412517D01*
X148108238Y-105412164D01*
X148113943Y-105408869D01*
X148113949Y-105408867D01*
X148222824Y-105325324D01*
X148306367Y-105216449D01*
X148358884Y-105089660D01*
X148376797Y-104953600D01*
X148375675Y-104945080D01*
X148358884Y-104817540D01*
X148306369Y-104690756D01*
X148306368Y-104690754D01*
X148306367Y-104690753D01*
X148306367Y-104690752D01*
X148222824Y-104581876D01*
X148222823Y-104581875D01*
X148222821Y-104581873D01*
X148113951Y-104498334D01*
X148113947Y-104498332D01*
X147987159Y-104445815D01*
X147851103Y-104427903D01*
X147851101Y-104427903D01*
X147851100Y-104427903D01*
X147823224Y-104431572D01*
X147817274Y-104432356D01*
X147756141Y-104421024D01*
X147733010Y-104403751D01*
X147528799Y-104199540D01*
X147520580Y-104188107D01*
X147519573Y-104188869D01*
X147513953Y-104181427D01*
X147477850Y-104148515D01*
X147476169Y-104146910D01*
X147461975Y-104132716D01*
X147459001Y-104130679D01*
X147453542Y-104126355D01*
X147429604Y-104104533D01*
X147429602Y-104104532D01*
X147420297Y-104100927D01*
X147399787Y-104090116D01*
X147391553Y-104084476D01*
X147360028Y-104077061D01*
X147353366Y-104074998D01*
X147349210Y-104073388D01*
X147323170Y-104063300D01*
X147323169Y-104063300D01*
X147313191Y-104063300D01*
X147290159Y-104060628D01*
X147280444Y-104058343D01*
X147280443Y-104058343D01*
X147268292Y-104060038D01*
X147248370Y-104062817D01*
X147241416Y-104063300D01*
X146646457Y-104063300D01*
X146587326Y-104044087D01*
X146550781Y-103993787D01*
X146547790Y-103982326D01*
X146547713Y-103981940D01*
X146545128Y-103968942D01*
X146545126Y-103968940D01*
X146545126Y-103968938D01*
X146511335Y-103918367D01*
X146511333Y-103918365D01*
X146460757Y-103884571D01*
X146425027Y-103877464D01*
X146416157Y-103875700D01*
X146416156Y-103875700D01*
X144736044Y-103875700D01*
X144691442Y-103884571D01*
X144691438Y-103884573D01*
X144640867Y-103918364D01*
X144640865Y-103918366D01*
X144607071Y-103968942D01*
X144598200Y-104013543D01*
X144598200Y-104723655D01*
X144607071Y-104768257D01*
X144607073Y-104768261D01*
X144640864Y-104818832D01*
X144640865Y-104818833D01*
X144640866Y-104818834D01*
X144691442Y-104852628D01*
X144736043Y-104861500D01*
X146416156Y-104861499D01*
X146460758Y-104852628D01*
X146511334Y-104818834D01*
X146545128Y-104768258D01*
X146547790Y-104754874D01*
X146578169Y-104700628D01*
X146634632Y-104674597D01*
X146646457Y-104673900D01*
X147097971Y-104673900D01*
X147157102Y-104693113D01*
X147169106Y-104703365D01*
X147301251Y-104835510D01*
X147329477Y-104890908D01*
X147329856Y-104919774D01*
X147325404Y-104953597D01*
X147325403Y-104953602D01*
X147343315Y-105089659D01*
X147395832Y-105216447D01*
X147395834Y-105216451D01*
X147479373Y-105325321D01*
X147479378Y-105325326D01*
X147588248Y-105408865D01*
X147593962Y-105412164D01*
X147592689Y-105414367D01*
X147631641Y-105447631D01*
X147646159Y-105508086D01*
X147622370Y-105565529D01*
X147569360Y-105598019D01*
X147545869Y-105600800D01*
X147384229Y-105600800D01*
X147325098Y-105581587D01*
X147313094Y-105571335D01*
X147161299Y-105419540D01*
X147153080Y-105408107D01*
X147152073Y-105408869D01*
X147146453Y-105401427D01*
X147110350Y-105368515D01*
X147108669Y-105366910D01*
X147094475Y-105352716D01*
X147091501Y-105350679D01*
X147086042Y-105346355D01*
X147062104Y-105324533D01*
X147062102Y-105324532D01*
X147052797Y-105320927D01*
X147032287Y-105310116D01*
X147024053Y-105304476D01*
X146992528Y-105297061D01*
X146985866Y-105294998D01*
X146981710Y-105293388D01*
X146955670Y-105283300D01*
X146955669Y-105283300D01*
X146945691Y-105283300D01*
X146922659Y-105280628D01*
X146912944Y-105278343D01*
X146912943Y-105278343D01*
X146900792Y-105280038D01*
X146880870Y-105282817D01*
X146873916Y-105283300D01*
X146628539Y-105283300D01*
X146569408Y-105264087D01*
X146544893Y-105238591D01*
X146542721Y-105235340D01*
X146511334Y-105188366D01*
X146466698Y-105158541D01*
X146460757Y-105154571D01*
X146425027Y-105147464D01*
X146416157Y-105145700D01*
X146416156Y-105145700D01*
X144736044Y-105145700D01*
X144691442Y-105154571D01*
X144691438Y-105154573D01*
X144640867Y-105188364D01*
X144640865Y-105188366D01*
X144607071Y-105238942D01*
X144598200Y-105283543D01*
X144598200Y-105993655D01*
X144607071Y-106038257D01*
X144607073Y-106038261D01*
X144640864Y-106088832D01*
X144640865Y-106088833D01*
X144640866Y-106088834D01*
X144691442Y-106122628D01*
X144736043Y-106131500D01*
X146416156Y-106131499D01*
X146460758Y-106122628D01*
X146511334Y-106088834D01*
X146545128Y-106038258D01*
X146554000Y-105993657D01*
X146554000Y-105993651D01*
X146554485Y-105988737D01*
X146555829Y-105988869D01*
X146573213Y-105935369D01*
X146623513Y-105898824D01*
X146654600Y-105893900D01*
X146730471Y-105893900D01*
X146789602Y-105913113D01*
X146801606Y-105923365D01*
X146953402Y-106075161D01*
X146961635Y-106086584D01*
X146962629Y-106085834D01*
X146968246Y-106093272D01*
X147004348Y-106126183D01*
X147006029Y-106127788D01*
X147020224Y-106141983D01*
X147023196Y-106144019D01*
X147028659Y-106148346D01*
X147052596Y-106170167D01*
X147061905Y-106173773D01*
X147082412Y-106184583D01*
X147090647Y-106190224D01*
X147122175Y-106197639D01*
X147128824Y-106199697D01*
X147159028Y-106211399D01*
X147159029Y-106211400D01*
X147159030Y-106211400D01*
X147169009Y-106211400D01*
X147192040Y-106214071D01*
X147201756Y-106216357D01*
X147233829Y-106211882D01*
X147240784Y-106211400D01*
X148737389Y-106211400D01*
X148751285Y-106213667D01*
X148751459Y-106212422D01*
X148760685Y-106213708D01*
X148760690Y-106213710D01*
X148790138Y-106212348D01*
X148809496Y-106211454D01*
X148811819Y-106211400D01*
X148831884Y-106211400D01*
X148831889Y-106211400D01*
X148835437Y-106210736D01*
X148842348Y-106209934D01*
X148874709Y-106208438D01*
X148883835Y-106204408D01*
X148905987Y-106197548D01*
X148915797Y-106195715D01*
X148943335Y-106178662D01*
X148949494Y-106175415D01*
X148979125Y-106162334D01*
X148986179Y-106155278D01*
X149004359Y-106140878D01*
X149012842Y-106135627D01*
X149032364Y-106109773D01*
X149036934Y-106104524D01*
X149152721Y-105988737D01*
X149290159Y-105851298D01*
X149301599Y-105843095D01*
X149300829Y-105842075D01*
X149308269Y-105836456D01*
X149308269Y-105836455D01*
X149308271Y-105836455D01*
X149341207Y-105800324D01*
X149342768Y-105798689D01*
X149356983Y-105784476D01*
X149359020Y-105781500D01*
X149363345Y-105776041D01*
X149385165Y-105752106D01*
X149385164Y-105752106D01*
X149385167Y-105752104D01*
X149388772Y-105742796D01*
X149399584Y-105722285D01*
X149405224Y-105714053D01*
X149412638Y-105682526D01*
X149414699Y-105675870D01*
X149426400Y-105645670D01*
X149426400Y-105635691D01*
X149429072Y-105612658D01*
X149431357Y-105602944D01*
X149426882Y-105570871D01*
X149426400Y-105563915D01*
X149426400Y-105425903D01*
X149445613Y-105366772D01*
X149465756Y-105346093D01*
X149492824Y-105325324D01*
X149576367Y-105216449D01*
X149576369Y-105216443D01*
X149579664Y-105210738D01*
X149581867Y-105212010D01*
X149615131Y-105173059D01*
X149675586Y-105158541D01*
X149733029Y-105182330D01*
X149765519Y-105235340D01*
X149768300Y-105258831D01*
X149768300Y-106372970D01*
X149749087Y-106432101D01*
X149738835Y-106444105D01*
X148604188Y-107578751D01*
X148548790Y-107606977D01*
X148519924Y-107607355D01*
X148486100Y-107602903D01*
X148486098Y-107602903D01*
X148486096Y-107602903D01*
X148350040Y-107620815D01*
X148223256Y-107673330D01*
X148223249Y-107673334D01*
X148114379Y-107756873D01*
X148114373Y-107756879D01*
X148030834Y-107865749D01*
X148030830Y-107865756D01*
X147978315Y-107992540D01*
X147960403Y-108128597D01*
X147960403Y-108128604D01*
X147969105Y-108194707D01*
X147957775Y-108255840D01*
X147912675Y-108298637D01*
X147851032Y-108306752D01*
X147798231Y-108278972D01*
X147478799Y-107959540D01*
X147470580Y-107948107D01*
X147469573Y-107948869D01*
X147463953Y-107941427D01*
X147427850Y-107908515D01*
X147426169Y-107906910D01*
X147411975Y-107892716D01*
X147409001Y-107890679D01*
X147403542Y-107886355D01*
X147379604Y-107864533D01*
X147379602Y-107864532D01*
X147370297Y-107860927D01*
X147349787Y-107850116D01*
X147341553Y-107844476D01*
X147310028Y-107837061D01*
X147303366Y-107834998D01*
X147299210Y-107833388D01*
X147273170Y-107823300D01*
X147273169Y-107823300D01*
X147263191Y-107823300D01*
X147240159Y-107820628D01*
X147230444Y-107818343D01*
X147230443Y-107818343D01*
X147218292Y-107820038D01*
X147198370Y-107822817D01*
X147191416Y-107823300D01*
X146628539Y-107823300D01*
X146569408Y-107804087D01*
X146544893Y-107778591D01*
X146511334Y-107728366D01*
X146485872Y-107711353D01*
X146460757Y-107694571D01*
X146425027Y-107687464D01*
X146416157Y-107685700D01*
X146416156Y-107685700D01*
X144736044Y-107685700D01*
X144691442Y-107694571D01*
X144691438Y-107694573D01*
X144640867Y-107728364D01*
X144640865Y-107728366D01*
X144607071Y-107778942D01*
X144598200Y-107823543D01*
X144598200Y-108533655D01*
X141526600Y-108533655D01*
X141526600Y-107263655D01*
X144598200Y-107263655D01*
X144607071Y-107308257D01*
X144607073Y-107308261D01*
X144640864Y-107358832D01*
X144640865Y-107358833D01*
X144640866Y-107358834D01*
X144691442Y-107392628D01*
X144736043Y-107401500D01*
X146416156Y-107401499D01*
X146460758Y-107392628D01*
X146511334Y-107358834D01*
X146545128Y-107308258D01*
X146554000Y-107263657D01*
X146553999Y-106553544D01*
X146545128Y-106508942D01*
X146545126Y-106508938D01*
X146511335Y-106458367D01*
X146511333Y-106458365D01*
X146460757Y-106424571D01*
X146425028Y-106417464D01*
X146416157Y-106415700D01*
X146416156Y-106415700D01*
X144736044Y-106415700D01*
X144691442Y-106424571D01*
X144691438Y-106424573D01*
X144640867Y-106458364D01*
X144640865Y-106458366D01*
X144607071Y-106508942D01*
X144598200Y-106553543D01*
X144598200Y-107263655D01*
X141526600Y-107263655D01*
X141526600Y-86129700D01*
X141545813Y-86070569D01*
X141596113Y-86034024D01*
X141627200Y-86029100D01*
X155375000Y-86029100D01*
X155434131Y-86048313D01*
G37*
%TD.AperFunction*%
%TD*%
M02*
