%TF.GenerationSoftware,KiCad,Pcbnew,7.0.7-dirty*%
%TF.CreationDate,2023-09-27T11:30:23-05:00*%
%TF.ProjectId,BBB_JTAG_CTI20_SMT_ARM20_SMT,4242425f-4a54-4414-975f-43544932305f,rev?*%
%TF.SameCoordinates,Original*%
%TF.FileFunction,Copper,L1,Top*%
%TF.FilePolarity,Positive*%
%FSLAX46Y46*%
G04 Gerber Fmt 4.6, Leading zero omitted, Abs format (unit mm)*
G04 Created by KiCad (PCBNEW 7.0.7-dirty) date 2023-09-27 11:30:23*
%MOMM*%
%LPD*%
G01*
G04 APERTURE LIST*
%TA.AperFunction,SMDPad,CuDef*%
%ADD10R,4.300000X1.020000*%
%TD*%
%TA.AperFunction,ViaPad*%
%ADD11C,0.736600*%
%TD*%
%TA.AperFunction,Conductor*%
%ADD12C,0.304800*%
%TD*%
G04 APERTURE END LIST*
D10*
%TO.P,P2,20*%
%TO.N,GND*%
X151951100Y-116433600D03*
%TO.P,P2,18*%
X151951100Y-113893600D03*
%TO.P,P2,16*%
X151951100Y-111353600D03*
%TO.P,P2,14*%
X151951100Y-108813600D03*
%TO.P,P2,12*%
X151951100Y-106273600D03*
%TO.P,P2,10*%
X151951100Y-103733600D03*
%TO.P,P2,8*%
X151951100Y-101193600D03*
%TO.P,P2,6*%
X151951100Y-98653600D03*
%TO.P,P2,4*%
X151951100Y-96113600D03*
%TO.P,P2,2*%
%TO.N,N/C*%
X151951100Y-93573600D03*
%TO.P,P2,19*%
X145051100Y-116433600D03*
%TO.P,P2,17*%
X145051100Y-113893600D03*
%TO.P,P2,15*%
%TO.N,SRST_N*%
X145051100Y-111353600D03*
%TO.P,P2,13*%
%TO.N,TDO*%
X145051100Y-108813600D03*
%TO.P,P2,11*%
%TO.N,RTCK*%
X145051100Y-106273600D03*
%TO.P,P2,9*%
%TO.N,TCK*%
X145051100Y-103733600D03*
%TO.P,P2,7*%
%TO.N,TMS*%
X145051100Y-101193600D03*
%TO.P,P2,5*%
%TO.N,TDI*%
X145051100Y-98653600D03*
%TO.P,P2,3*%
%TO.N,TRST_N*%
X145051100Y-96113600D03*
%TO.P,P2,1*%
%TO.N,VDD*%
X145051100Y-93573600D03*
%TD*%
D11*
%TO.N,GND*%
X148486100Y-116383600D03*
X148486100Y-113843600D03*
X148486100Y-111303600D03*
%TO.N,TRST_N*%
X149121100Y-94793600D03*
%TO.N,SRST_N*%
X148486100Y-109716100D03*
%TO.N,TCK*%
X149121100Y-104953600D03*
%TO.N,RTCK*%
X147851100Y-104953600D03*
%TO.N,TDO*%
X148486100Y-108128600D03*
%TO.N,VDD*%
X147851100Y-94793600D03*
%TO.N,TDI*%
X149121100Y-99873600D03*
%TO.N,TMS*%
X147851100Y-99873600D03*
%TD*%
D12*
%TO.N,TRST_N*%
X149121100Y-95428600D02*
X149121100Y-94793600D01*
X148436100Y-96113600D02*
X149121100Y-95428600D01*
X145051100Y-96113600D02*
X148436100Y-96113600D01*
%TO.N,SRST_N*%
X146848600Y-111353600D02*
X148486100Y-109716100D01*
X145051100Y-111353600D02*
X146848600Y-111353600D01*
%TO.N,TCK*%
X149121100Y-104318600D02*
X149121100Y-104953600D01*
X148536100Y-103733600D02*
X149121100Y-104318600D01*
X145051100Y-103733600D02*
X148536100Y-103733600D01*
%TO.N,RTCK*%
X145101100Y-106223600D02*
X145051100Y-106273600D01*
X147216100Y-106223600D02*
X145101100Y-106223600D01*
X147851100Y-105588600D02*
X147216100Y-106223600D01*
X147851100Y-104953600D02*
X147851100Y-105588600D01*
%TO.N,TDO*%
X145101100Y-108763600D02*
X145051100Y-108813600D01*
X147851100Y-108763600D02*
X145101100Y-108763600D01*
X148486100Y-108128600D02*
X147851100Y-108763600D01*
%TO.N,VDD*%
X145101100Y-93523600D02*
X145051100Y-93573600D01*
X147216100Y-93523600D02*
X145101100Y-93523600D01*
X147851100Y-94158600D02*
X147216100Y-93523600D01*
X147851100Y-94793600D02*
X147851100Y-94158600D01*
%TO.N,TDI*%
X145101100Y-98603600D02*
X145051100Y-98653600D01*
X148486100Y-98603600D02*
X145101100Y-98603600D01*
X149121100Y-99238600D02*
X148486100Y-98603600D01*
X149121100Y-99873600D02*
X149121100Y-99238600D01*
%TO.N,TMS*%
X145101100Y-101143600D02*
X145051100Y-101193600D01*
X147216100Y-101143600D02*
X145101100Y-101143600D01*
X147851100Y-100508600D02*
X147216100Y-101143600D01*
X147851100Y-99873600D02*
X147851100Y-100508600D01*
%TD*%
%TA.AperFunction,Conductor*%
%TO.N,GND*%
G36*
X155434131Y-86048313D02*
G01*
X155470676Y-86098613D01*
X155475600Y-86129700D01*
X155475600Y-123877500D01*
X155456387Y-123936631D01*
X155406087Y-123973176D01*
X155375000Y-123978100D01*
X141627200Y-123978100D01*
X141568069Y-123958887D01*
X141531524Y-123908587D01*
X141526600Y-123877500D01*
X141526600Y-116958655D01*
X142748200Y-116958655D01*
X142757071Y-117003257D01*
X142757073Y-117003261D01*
X142790864Y-117053832D01*
X142790865Y-117053833D01*
X142790866Y-117053834D01*
X142841442Y-117087628D01*
X142886043Y-117096500D01*
X147216156Y-117096499D01*
X147260758Y-117087628D01*
X147311334Y-117053834D01*
X147345128Y-117003258D01*
X147346062Y-116998563D01*
X149344700Y-116998563D01*
X149347592Y-117029408D01*
X149393031Y-117159269D01*
X149474731Y-117269968D01*
X149585430Y-117351668D01*
X149715292Y-117397107D01*
X149715291Y-117397107D01*
X149746137Y-117400000D01*
X150661977Y-117400000D01*
X151307424Y-117400000D01*
X152594776Y-117400000D01*
X151951100Y-116756324D01*
X151307424Y-117400000D01*
X150661977Y-117400000D01*
X151628376Y-116433599D01*
X152273823Y-116433599D01*
X153240223Y-117400000D01*
X154156063Y-117400000D01*
X154186908Y-117397107D01*
X154316769Y-117351668D01*
X154427468Y-117269968D01*
X154509168Y-117159269D01*
X154554607Y-117029408D01*
X154557500Y-116998563D01*
X154557500Y-115868636D01*
X154554607Y-115837791D01*
X154509168Y-115707930D01*
X154427468Y-115597231D01*
X154316769Y-115515531D01*
X154186907Y-115470092D01*
X154186908Y-115470092D01*
X154156063Y-115467200D01*
X153240223Y-115467200D01*
X152273823Y-116433599D01*
X151628376Y-116433599D01*
X151628376Y-116433598D01*
X150661977Y-115467200D01*
X151307424Y-115467200D01*
X151951100Y-116110876D01*
X152594776Y-115467200D01*
X151307424Y-115467200D01*
X150661977Y-115467200D01*
X149746137Y-115467200D01*
X149715291Y-115470092D01*
X149585430Y-115515531D01*
X149474731Y-115597231D01*
X149393031Y-115707930D01*
X149347592Y-115837791D01*
X149344700Y-115868636D01*
X149344700Y-116998563D01*
X147346062Y-116998563D01*
X147354000Y-116958657D01*
X147353999Y-115908544D01*
X147345128Y-115863942D01*
X147345126Y-115863938D01*
X147311335Y-115813367D01*
X147311333Y-115813365D01*
X147260757Y-115779571D01*
X147225027Y-115772464D01*
X147216157Y-115770700D01*
X147216156Y-115770700D01*
X142886044Y-115770700D01*
X142841442Y-115779571D01*
X142841438Y-115779573D01*
X142790867Y-115813364D01*
X142790865Y-115813366D01*
X142757071Y-115863942D01*
X142748200Y-115908543D01*
X142748200Y-116958655D01*
X141526600Y-116958655D01*
X141526600Y-114418655D01*
X142748200Y-114418655D01*
X142757071Y-114463257D01*
X142757073Y-114463261D01*
X142790864Y-114513832D01*
X142790865Y-114513833D01*
X142790866Y-114513834D01*
X142841442Y-114547628D01*
X142886043Y-114556500D01*
X147216156Y-114556499D01*
X147260758Y-114547628D01*
X147311334Y-114513834D01*
X147345128Y-114463258D01*
X147346062Y-114458563D01*
X149344700Y-114458563D01*
X149347592Y-114489408D01*
X149393031Y-114619269D01*
X149474731Y-114729968D01*
X149585430Y-114811668D01*
X149715292Y-114857107D01*
X149715291Y-114857107D01*
X149746137Y-114860000D01*
X150661977Y-114860000D01*
X151307424Y-114860000D01*
X152594776Y-114860000D01*
X151951100Y-114216324D01*
X151307424Y-114860000D01*
X150661977Y-114860000D01*
X151628376Y-113893599D01*
X152273823Y-113893599D01*
X153240223Y-114860000D01*
X154156063Y-114860000D01*
X154186908Y-114857107D01*
X154316769Y-114811668D01*
X154427468Y-114729968D01*
X154509168Y-114619269D01*
X154554607Y-114489408D01*
X154557500Y-114458563D01*
X154557500Y-113328636D01*
X154554607Y-113297791D01*
X154509168Y-113167930D01*
X154427468Y-113057231D01*
X154316769Y-112975531D01*
X154186907Y-112930092D01*
X154186908Y-112930092D01*
X154156063Y-112927200D01*
X153240223Y-112927200D01*
X152273823Y-113893599D01*
X151628376Y-113893599D01*
X151628376Y-113893598D01*
X150661977Y-112927200D01*
X151307424Y-112927200D01*
X151951100Y-113570876D01*
X152594776Y-112927200D01*
X151307424Y-112927200D01*
X150661977Y-112927200D01*
X149746137Y-112927200D01*
X149715291Y-112930092D01*
X149585430Y-112975531D01*
X149474731Y-113057231D01*
X149393031Y-113167930D01*
X149347592Y-113297791D01*
X149344700Y-113328636D01*
X149344700Y-114458563D01*
X147346062Y-114458563D01*
X147354000Y-114418657D01*
X147353999Y-113368544D01*
X147345128Y-113323942D01*
X147345126Y-113323938D01*
X147311335Y-113273367D01*
X147311333Y-113273365D01*
X147260757Y-113239571D01*
X147225027Y-113232464D01*
X147216157Y-113230700D01*
X147216156Y-113230700D01*
X142886044Y-113230700D01*
X142841442Y-113239571D01*
X142841438Y-113239573D01*
X142790867Y-113273364D01*
X142790865Y-113273366D01*
X142757071Y-113323942D01*
X142748200Y-113368543D01*
X142748200Y-114418655D01*
X141526600Y-114418655D01*
X141526600Y-111878655D01*
X142748200Y-111878655D01*
X142757071Y-111923257D01*
X142757073Y-111923261D01*
X142790864Y-111973832D01*
X142790865Y-111973833D01*
X142790866Y-111973834D01*
X142841442Y-112007628D01*
X142886043Y-112016500D01*
X147216156Y-112016499D01*
X147260758Y-112007628D01*
X147311334Y-111973834D01*
X147345128Y-111923258D01*
X147346062Y-111918563D01*
X149344700Y-111918563D01*
X149347592Y-111949408D01*
X149393031Y-112079269D01*
X149474731Y-112189968D01*
X149585430Y-112271668D01*
X149715292Y-112317107D01*
X149715291Y-112317107D01*
X149746137Y-112320000D01*
X150661977Y-112320000D01*
X151307424Y-112320000D01*
X152594776Y-112320000D01*
X151951100Y-111676324D01*
X151307424Y-112320000D01*
X150661977Y-112320000D01*
X151628376Y-111353599D01*
X152273823Y-111353599D01*
X153240223Y-112320000D01*
X154156063Y-112320000D01*
X154186908Y-112317107D01*
X154316769Y-112271668D01*
X154427468Y-112189968D01*
X154509168Y-112079269D01*
X154554607Y-111949408D01*
X154557500Y-111918563D01*
X154557500Y-110788636D01*
X154554607Y-110757791D01*
X154509168Y-110627930D01*
X154427468Y-110517231D01*
X154316769Y-110435531D01*
X154186907Y-110390092D01*
X154186908Y-110390092D01*
X154156063Y-110387200D01*
X153240223Y-110387200D01*
X152273823Y-111353599D01*
X151628376Y-111353599D01*
X151628376Y-111353598D01*
X150661977Y-110387200D01*
X151307424Y-110387200D01*
X151951100Y-111030876D01*
X152594776Y-110387200D01*
X151307424Y-110387200D01*
X150661977Y-110387200D01*
X149746137Y-110387200D01*
X149715291Y-110390092D01*
X149585430Y-110435531D01*
X149474731Y-110517231D01*
X149393031Y-110627930D01*
X149347592Y-110757791D01*
X149344700Y-110788636D01*
X149344700Y-111918563D01*
X147346062Y-111918563D01*
X147354000Y-111878657D01*
X147353999Y-111321627D01*
X147373212Y-111262497D01*
X147383458Y-111250499D01*
X148368011Y-110265946D01*
X148423407Y-110237722D01*
X148452276Y-110237344D01*
X148486098Y-110241797D01*
X148486100Y-110241797D01*
X148486103Y-110241797D01*
X148588144Y-110228362D01*
X148622160Y-110223884D01*
X148748949Y-110171367D01*
X148857824Y-110087824D01*
X148941367Y-109978949D01*
X148993884Y-109852160D01*
X149007344Y-109749923D01*
X149011797Y-109716102D01*
X149011797Y-109716097D01*
X148993884Y-109580040D01*
X148941369Y-109453256D01*
X148941368Y-109453254D01*
X148941367Y-109453253D01*
X148941367Y-109453252D01*
X148884056Y-109378563D01*
X149344700Y-109378563D01*
X149347592Y-109409408D01*
X149393031Y-109539269D01*
X149474731Y-109649968D01*
X149585430Y-109731668D01*
X149715292Y-109777107D01*
X149715291Y-109777107D01*
X149746137Y-109780000D01*
X150661977Y-109780000D01*
X151307424Y-109780000D01*
X152594776Y-109780000D01*
X151951100Y-109136324D01*
X151307424Y-109780000D01*
X150661977Y-109780000D01*
X151628376Y-108813599D01*
X152273823Y-108813599D01*
X153240223Y-109780000D01*
X154156063Y-109780000D01*
X154186908Y-109777107D01*
X154316769Y-109731668D01*
X154427468Y-109649968D01*
X154509168Y-109539269D01*
X154554607Y-109409408D01*
X154557500Y-109378563D01*
X154557500Y-108248636D01*
X154554607Y-108217791D01*
X154509168Y-108087930D01*
X154427468Y-107977231D01*
X154316769Y-107895531D01*
X154186907Y-107850092D01*
X154186908Y-107850092D01*
X154156063Y-107847200D01*
X153240223Y-107847200D01*
X152273823Y-108813599D01*
X151628376Y-108813599D01*
X151628376Y-108813598D01*
X150661977Y-107847200D01*
X151307424Y-107847200D01*
X151951100Y-108490876D01*
X152594776Y-107847200D01*
X151307424Y-107847200D01*
X150661977Y-107847200D01*
X149746137Y-107847200D01*
X149715291Y-107850092D01*
X149585430Y-107895531D01*
X149474731Y-107977231D01*
X149393031Y-108087930D01*
X149347592Y-108217791D01*
X149344700Y-108248636D01*
X149344700Y-109378563D01*
X148884056Y-109378563D01*
X148857824Y-109344376D01*
X148857823Y-109344375D01*
X148857821Y-109344373D01*
X148748951Y-109260834D01*
X148748947Y-109260832D01*
X148622159Y-109208315D01*
X148486103Y-109190403D01*
X148486097Y-109190403D01*
X148350040Y-109208315D01*
X148223256Y-109260830D01*
X148223249Y-109260834D01*
X148114379Y-109344373D01*
X148114373Y-109344379D01*
X148030834Y-109453249D01*
X148030830Y-109453256D01*
X147978315Y-109580040D01*
X147960403Y-109716096D01*
X147960403Y-109716097D01*
X147960403Y-109716100D01*
X147962453Y-109731668D01*
X147964856Y-109749923D01*
X147953524Y-109811056D01*
X147936251Y-109834188D01*
X147109204Y-110661235D01*
X147053806Y-110689461D01*
X147038069Y-110690700D01*
X142886044Y-110690700D01*
X142841442Y-110699571D01*
X142841438Y-110699573D01*
X142790867Y-110733364D01*
X142790865Y-110733366D01*
X142757071Y-110783942D01*
X142748200Y-110828543D01*
X142748200Y-111878655D01*
X141526600Y-111878655D01*
X141526600Y-109338655D01*
X142748200Y-109338655D01*
X142757071Y-109383257D01*
X142757073Y-109383261D01*
X142790864Y-109433832D01*
X142790865Y-109433833D01*
X142790866Y-109433834D01*
X142841442Y-109467628D01*
X142886043Y-109476500D01*
X147216156Y-109476499D01*
X147260758Y-109467628D01*
X147311334Y-109433834D01*
X147345128Y-109383258D01*
X147354000Y-109338657D01*
X147354000Y-109169500D01*
X147373213Y-109110369D01*
X147423513Y-109073824D01*
X147454600Y-109068900D01*
X147784889Y-109068900D01*
X147798785Y-109071167D01*
X147798959Y-109069922D01*
X147808185Y-109071208D01*
X147808190Y-109071210D01*
X147837638Y-109069848D01*
X147856996Y-109068954D01*
X147859319Y-109068900D01*
X147879384Y-109068900D01*
X147879389Y-109068900D01*
X147882937Y-109068236D01*
X147889848Y-109067434D01*
X147922209Y-109065938D01*
X147931335Y-109061908D01*
X147953487Y-109055048D01*
X147963297Y-109053215D01*
X147990835Y-109036162D01*
X147996994Y-109032915D01*
X148026625Y-109019834D01*
X148033679Y-109012778D01*
X148051859Y-108998378D01*
X148060342Y-108993127D01*
X148079864Y-108967273D01*
X148084434Y-108962024D01*
X148084433Y-108962024D01*
X148368011Y-108678446D01*
X148423407Y-108650222D01*
X148452276Y-108649844D01*
X148486098Y-108654297D01*
X148486100Y-108654297D01*
X148486103Y-108654297D01*
X148588145Y-108640862D01*
X148622160Y-108636384D01*
X148748949Y-108583867D01*
X148857824Y-108500324D01*
X148941367Y-108391449D01*
X148993884Y-108264660D01*
X149003270Y-108193365D01*
X149011797Y-108128602D01*
X149011797Y-108128597D01*
X148993884Y-107992540D01*
X148941369Y-107865756D01*
X148941368Y-107865754D01*
X148941367Y-107865753D01*
X148941367Y-107865752D01*
X148857824Y-107756876D01*
X148857823Y-107756875D01*
X148857821Y-107756873D01*
X148748951Y-107673334D01*
X148748947Y-107673332D01*
X148622159Y-107620815D01*
X148486103Y-107602903D01*
X148486097Y-107602903D01*
X148350040Y-107620815D01*
X148223256Y-107673330D01*
X148223249Y-107673334D01*
X148114379Y-107756873D01*
X148114373Y-107756879D01*
X148030834Y-107865749D01*
X148030830Y-107865756D01*
X147978315Y-107992540D01*
X147960403Y-108128597D01*
X147960403Y-108128603D01*
X147964855Y-108162422D01*
X147953525Y-108223555D01*
X147936252Y-108246686D01*
X147754107Y-108428834D01*
X147698709Y-108457061D01*
X147682971Y-108458300D01*
X147454599Y-108458300D01*
X147395468Y-108439087D01*
X147358923Y-108388787D01*
X147353999Y-108357700D01*
X147353999Y-108288544D01*
X147345128Y-108243942D01*
X147345126Y-108243938D01*
X147311335Y-108193367D01*
X147311333Y-108193365D01*
X147260757Y-108159571D01*
X147225027Y-108152464D01*
X147216157Y-108150700D01*
X147216156Y-108150700D01*
X142886044Y-108150700D01*
X142841442Y-108159571D01*
X142841438Y-108159573D01*
X142790867Y-108193364D01*
X142790865Y-108193366D01*
X142757071Y-108243942D01*
X142748200Y-108288543D01*
X142748200Y-109338655D01*
X141526600Y-109338655D01*
X141526600Y-106798655D01*
X142748200Y-106798655D01*
X142757071Y-106843257D01*
X142757073Y-106843261D01*
X142790864Y-106893832D01*
X142790865Y-106893833D01*
X142790866Y-106893834D01*
X142841442Y-106927628D01*
X142886043Y-106936500D01*
X147216156Y-106936499D01*
X147260758Y-106927628D01*
X147311334Y-106893834D01*
X147345128Y-106843258D01*
X147354000Y-106798657D01*
X147353999Y-106558634D01*
X147373212Y-106499504D01*
X147385833Y-106487233D01*
X147385030Y-106486430D01*
X147392037Y-106479421D01*
X147398679Y-106472778D01*
X147416859Y-106458378D01*
X147425342Y-106453127D01*
X147444864Y-106427273D01*
X147449434Y-106422024D01*
X147597860Y-106273598D01*
X148020159Y-105851298D01*
X148031599Y-105843095D01*
X148030829Y-105842075D01*
X148038269Y-105836456D01*
X148038269Y-105836455D01*
X148038271Y-105836455D01*
X148071207Y-105800324D01*
X148072768Y-105798689D01*
X148086983Y-105784476D01*
X148089020Y-105781500D01*
X148093345Y-105776041D01*
X148115165Y-105752106D01*
X148115164Y-105752106D01*
X148115167Y-105752104D01*
X148118772Y-105742796D01*
X148129584Y-105722285D01*
X148135224Y-105714053D01*
X148142640Y-105682520D01*
X148144696Y-105675879D01*
X148156400Y-105645670D01*
X148156400Y-105635690D01*
X148159072Y-105612657D01*
X148159532Y-105610700D01*
X148161357Y-105602943D01*
X148156882Y-105570868D01*
X148156400Y-105563913D01*
X148156400Y-105425903D01*
X148175613Y-105366772D01*
X148195756Y-105346093D01*
X148222824Y-105325324D01*
X148306367Y-105216449D01*
X148358884Y-105089660D01*
X148376797Y-104953600D01*
X148358884Y-104817540D01*
X148331461Y-104751334D01*
X148306369Y-104690756D01*
X148306368Y-104690754D01*
X148306367Y-104690753D01*
X148306367Y-104690752D01*
X148222824Y-104581876D01*
X148222823Y-104581875D01*
X148222821Y-104581873D01*
X148113951Y-104498334D01*
X148113947Y-104498332D01*
X147987159Y-104445815D01*
X147851103Y-104427903D01*
X147851097Y-104427903D01*
X147715040Y-104445815D01*
X147588256Y-104498330D01*
X147588249Y-104498334D01*
X147479379Y-104581873D01*
X147479373Y-104581879D01*
X147395834Y-104690749D01*
X147395830Y-104690756D01*
X147343315Y-104817540D01*
X147325403Y-104953597D01*
X147325403Y-104953602D01*
X147343315Y-105089659D01*
X147395832Y-105216447D01*
X147395834Y-105216451D01*
X147479373Y-105325321D01*
X147479375Y-105325323D01*
X147503367Y-105343733D01*
X147538582Y-105394972D01*
X147536955Y-105457125D01*
X147513260Y-105494679D01*
X147395632Y-105612306D01*
X147340234Y-105640533D01*
X147278825Y-105630806D01*
X147268612Y-105624820D01*
X147260758Y-105619572D01*
X147260757Y-105619571D01*
X147260756Y-105619571D01*
X147225995Y-105612657D01*
X147216157Y-105610700D01*
X147216156Y-105610700D01*
X142886044Y-105610700D01*
X142841442Y-105619571D01*
X142841438Y-105619573D01*
X142790867Y-105653364D01*
X142790865Y-105653366D01*
X142757071Y-105703942D01*
X142748200Y-105748543D01*
X142748200Y-106798655D01*
X141526600Y-106798655D01*
X141526600Y-104258655D01*
X142748200Y-104258655D01*
X142757071Y-104303257D01*
X142757073Y-104303261D01*
X142790864Y-104353832D01*
X142790865Y-104353833D01*
X142790866Y-104353834D01*
X142841442Y-104387628D01*
X142886043Y-104396500D01*
X147216156Y-104396499D01*
X147260758Y-104387628D01*
X147311334Y-104353834D01*
X147345128Y-104303258D01*
X147354000Y-104258657D01*
X147354000Y-104139499D01*
X147373213Y-104080369D01*
X147423513Y-104043824D01*
X147454600Y-104038900D01*
X148367971Y-104038900D01*
X148427102Y-104058113D01*
X148439106Y-104068365D01*
X148783261Y-104412520D01*
X148811487Y-104467918D01*
X148801761Y-104529326D01*
X148773368Y-104563466D01*
X148749376Y-104581875D01*
X148665831Y-104690754D01*
X148665830Y-104690756D01*
X148613315Y-104817540D01*
X148595403Y-104953597D01*
X148595403Y-104953602D01*
X148613315Y-105089659D01*
X148665832Y-105216447D01*
X148665834Y-105216451D01*
X148749373Y-105325321D01*
X148749378Y-105325326D01*
X148858248Y-105408865D01*
X148858251Y-105408867D01*
X148926729Y-105437231D01*
X148985040Y-105461384D01*
X149121097Y-105479297D01*
X149121100Y-105479297D01*
X149121103Y-105479297D01*
X149263697Y-105460524D01*
X149263878Y-105461903D01*
X149318723Y-105464770D01*
X149367046Y-105503890D01*
X149383147Y-105563944D01*
X149377639Y-105591917D01*
X149347593Y-105677788D01*
X149347592Y-105677791D01*
X149344700Y-105708636D01*
X149344700Y-106838563D01*
X149347592Y-106869408D01*
X149393031Y-106999269D01*
X149474731Y-107109968D01*
X149585430Y-107191668D01*
X149715292Y-107237107D01*
X149715291Y-107237107D01*
X149746137Y-107240000D01*
X150661977Y-107240000D01*
X151307424Y-107240000D01*
X152594776Y-107240000D01*
X151951100Y-106596324D01*
X151307424Y-107240000D01*
X150661977Y-107240000D01*
X151628376Y-106273599D01*
X152273823Y-106273599D01*
X153240223Y-107240000D01*
X154156063Y-107240000D01*
X154186908Y-107237107D01*
X154316769Y-107191668D01*
X154427468Y-107109968D01*
X154509168Y-106999269D01*
X154554607Y-106869408D01*
X154557500Y-106838563D01*
X154557500Y-105708636D01*
X154554607Y-105677791D01*
X154509168Y-105547930D01*
X154427468Y-105437231D01*
X154316769Y-105355531D01*
X154186907Y-105310092D01*
X154186908Y-105310092D01*
X154156063Y-105307200D01*
X153240223Y-105307200D01*
X152273823Y-106273599D01*
X151628376Y-106273599D01*
X151628376Y-106273598D01*
X150661977Y-105307200D01*
X151307424Y-105307200D01*
X151951100Y-105950876D01*
X152594776Y-105307200D01*
X151307424Y-105307200D01*
X150661977Y-105307200D01*
X149746137Y-105307200D01*
X149715291Y-105310092D01*
X149709316Y-105311398D01*
X149708751Y-105308815D01*
X149657472Y-105309952D01*
X149606375Y-105274531D01*
X149585856Y-105215840D01*
X149593489Y-105175112D01*
X149628884Y-105089659D01*
X149646797Y-104953602D01*
X149646797Y-104953598D01*
X149628216Y-104812468D01*
X149639546Y-104751334D01*
X149684645Y-104708536D01*
X149737355Y-104699176D01*
X149746135Y-104700000D01*
X150661977Y-104700000D01*
X151307424Y-104700000D01*
X152594776Y-104700000D01*
X151951100Y-104056324D01*
X151307424Y-104700000D01*
X150661977Y-104700000D01*
X151628375Y-103733600D01*
X152273823Y-103733600D01*
X153240223Y-104700000D01*
X154156063Y-104700000D01*
X154186908Y-104697107D01*
X154316769Y-104651668D01*
X154427468Y-104569968D01*
X154509168Y-104459269D01*
X154554607Y-104329408D01*
X154557500Y-104298563D01*
X154557500Y-103168636D01*
X154554607Y-103137791D01*
X154509168Y-103007930D01*
X154427468Y-102897231D01*
X154316769Y-102815531D01*
X154186907Y-102770092D01*
X154186908Y-102770092D01*
X154156063Y-102767200D01*
X153240223Y-102767200D01*
X152273823Y-103733600D01*
X151628375Y-103733600D01*
X151628376Y-103733599D01*
X150661977Y-102767200D01*
X151307424Y-102767200D01*
X151951100Y-103410876D01*
X152594776Y-102767200D01*
X151307424Y-102767200D01*
X150661977Y-102767200D01*
X149746137Y-102767200D01*
X149715291Y-102770092D01*
X149585430Y-102815531D01*
X149474731Y-102897231D01*
X149393031Y-103007930D01*
X149347592Y-103137791D01*
X149344700Y-103168636D01*
X149344700Y-103867570D01*
X149325487Y-103926701D01*
X149275187Y-103963246D01*
X149213013Y-103963246D01*
X149172965Y-103938705D01*
X148798799Y-103564540D01*
X148790580Y-103553107D01*
X148789573Y-103553869D01*
X148783953Y-103546427D01*
X148747850Y-103513515D01*
X148746169Y-103511910D01*
X148731975Y-103497716D01*
X148729001Y-103495679D01*
X148723542Y-103491355D01*
X148699604Y-103469533D01*
X148699602Y-103469532D01*
X148690297Y-103465927D01*
X148669787Y-103455116D01*
X148661553Y-103449476D01*
X148630028Y-103442061D01*
X148623366Y-103439998D01*
X148619210Y-103438388D01*
X148593170Y-103428300D01*
X148593169Y-103428300D01*
X148583191Y-103428300D01*
X148560159Y-103425628D01*
X148550444Y-103423343D01*
X148550443Y-103423343D01*
X148538292Y-103425038D01*
X148518370Y-103427817D01*
X148511416Y-103428300D01*
X147454599Y-103428300D01*
X147395468Y-103409087D01*
X147358923Y-103358787D01*
X147353999Y-103327700D01*
X147353999Y-103208544D01*
X147345128Y-103163942D01*
X147345126Y-103163938D01*
X147311335Y-103113367D01*
X147311333Y-103113365D01*
X147260757Y-103079571D01*
X147225027Y-103072464D01*
X147216157Y-103070700D01*
X147216156Y-103070700D01*
X142886044Y-103070700D01*
X142841442Y-103079571D01*
X142841438Y-103079573D01*
X142790867Y-103113364D01*
X142790865Y-103113366D01*
X142757071Y-103163942D01*
X142748200Y-103208543D01*
X142748200Y-104258655D01*
X141526600Y-104258655D01*
X141526600Y-101718655D01*
X142748200Y-101718655D01*
X142757071Y-101763257D01*
X142757073Y-101763261D01*
X142790864Y-101813832D01*
X142790865Y-101813833D01*
X142790866Y-101813834D01*
X142841442Y-101847628D01*
X142886043Y-101856500D01*
X147216156Y-101856499D01*
X147260758Y-101847628D01*
X147311334Y-101813834D01*
X147345128Y-101763258D01*
X147354000Y-101718657D01*
X147353999Y-101478634D01*
X147373212Y-101419504D01*
X147385833Y-101407233D01*
X147385030Y-101406430D01*
X147392037Y-101399421D01*
X147398679Y-101392778D01*
X147416859Y-101378378D01*
X147425342Y-101373127D01*
X147444864Y-101347273D01*
X147449434Y-101342024D01*
X147597860Y-101193598D01*
X148020159Y-100771298D01*
X148031599Y-100763095D01*
X148030829Y-100762075D01*
X148038269Y-100756456D01*
X148038269Y-100756455D01*
X148038271Y-100756455D01*
X148071207Y-100720324D01*
X148072768Y-100718689D01*
X148086983Y-100704476D01*
X148089020Y-100701500D01*
X148093345Y-100696041D01*
X148115165Y-100672106D01*
X148115164Y-100672106D01*
X148115167Y-100672104D01*
X148118772Y-100662796D01*
X148129584Y-100642285D01*
X148135224Y-100634053D01*
X148142640Y-100602520D01*
X148144696Y-100595879D01*
X148156400Y-100565670D01*
X148156400Y-100555690D01*
X148159072Y-100532657D01*
X148159532Y-100530700D01*
X148161357Y-100522943D01*
X148156882Y-100490868D01*
X148156400Y-100483913D01*
X148156400Y-100345903D01*
X148175613Y-100286772D01*
X148195756Y-100266093D01*
X148222824Y-100245324D01*
X148306367Y-100136449D01*
X148358884Y-100009660D01*
X148376797Y-99873600D01*
X148358884Y-99737540D01*
X148331461Y-99671334D01*
X148306369Y-99610756D01*
X148306368Y-99610754D01*
X148306367Y-99610753D01*
X148306367Y-99610752D01*
X148222824Y-99501876D01*
X148222823Y-99501875D01*
X148222821Y-99501873D01*
X148113951Y-99418334D01*
X148113947Y-99418332D01*
X147987159Y-99365815D01*
X147851103Y-99347903D01*
X147851097Y-99347903D01*
X147715040Y-99365815D01*
X147588256Y-99418330D01*
X147588249Y-99418334D01*
X147479379Y-99501873D01*
X147479373Y-99501879D01*
X147395834Y-99610749D01*
X147395830Y-99610756D01*
X147343315Y-99737540D01*
X147325403Y-99873597D01*
X147325403Y-99873602D01*
X147343315Y-100009659D01*
X147395832Y-100136447D01*
X147395834Y-100136451D01*
X147479373Y-100245321D01*
X147479375Y-100245323D01*
X147503367Y-100263733D01*
X147538582Y-100314972D01*
X147536955Y-100377125D01*
X147513260Y-100414679D01*
X147395632Y-100532306D01*
X147340234Y-100560533D01*
X147278825Y-100550806D01*
X147268612Y-100544820D01*
X147260758Y-100539572D01*
X147260757Y-100539571D01*
X147260756Y-100539571D01*
X147225995Y-100532657D01*
X147216157Y-100530700D01*
X147216156Y-100530700D01*
X142886044Y-100530700D01*
X142841442Y-100539571D01*
X142841438Y-100539573D01*
X142790867Y-100573364D01*
X142790865Y-100573366D01*
X142757071Y-100623942D01*
X142748200Y-100668543D01*
X142748200Y-101718655D01*
X141526600Y-101718655D01*
X141526600Y-99178655D01*
X142748200Y-99178655D01*
X142757071Y-99223257D01*
X142757073Y-99223261D01*
X142790864Y-99273832D01*
X142790865Y-99273833D01*
X142790866Y-99273834D01*
X142841442Y-99307628D01*
X142886043Y-99316500D01*
X147216156Y-99316499D01*
X147260758Y-99307628D01*
X147311334Y-99273834D01*
X147345128Y-99223258D01*
X147354000Y-99178657D01*
X147354000Y-99009499D01*
X147373213Y-98950369D01*
X147423513Y-98913824D01*
X147454600Y-98908900D01*
X148317971Y-98908900D01*
X148377102Y-98928113D01*
X148389106Y-98938365D01*
X148783261Y-99332520D01*
X148811487Y-99387918D01*
X148801761Y-99449326D01*
X148773368Y-99483466D01*
X148749376Y-99501875D01*
X148665831Y-99610754D01*
X148665830Y-99610756D01*
X148613315Y-99737540D01*
X148595403Y-99873597D01*
X148595403Y-99873602D01*
X148613315Y-100009659D01*
X148665832Y-100136447D01*
X148665834Y-100136451D01*
X148749373Y-100245321D01*
X148749378Y-100245326D01*
X148858248Y-100328865D01*
X148858251Y-100328867D01*
X148926729Y-100357231D01*
X148985040Y-100381384D01*
X149121097Y-100399297D01*
X149121100Y-100399297D01*
X149121103Y-100399297D01*
X149263697Y-100380524D01*
X149263878Y-100381903D01*
X149318723Y-100384770D01*
X149367046Y-100423890D01*
X149383147Y-100483944D01*
X149377639Y-100511917D01*
X149347593Y-100597788D01*
X149347592Y-100597791D01*
X149344700Y-100628636D01*
X149344700Y-101758563D01*
X149347592Y-101789408D01*
X149393031Y-101919269D01*
X149474731Y-102029968D01*
X149585430Y-102111668D01*
X149715292Y-102157107D01*
X149715291Y-102157107D01*
X149746137Y-102160000D01*
X150661977Y-102160000D01*
X151307424Y-102160000D01*
X152594776Y-102160000D01*
X151951100Y-101516324D01*
X151307424Y-102160000D01*
X150661977Y-102160000D01*
X151628375Y-101193600D01*
X152273823Y-101193600D01*
X153240223Y-102160000D01*
X154156063Y-102160000D01*
X154186908Y-102157107D01*
X154316769Y-102111668D01*
X154427468Y-102029968D01*
X154509168Y-101919269D01*
X154554607Y-101789408D01*
X154557500Y-101758563D01*
X154557500Y-100628636D01*
X154554607Y-100597791D01*
X154509168Y-100467930D01*
X154427468Y-100357231D01*
X154316769Y-100275531D01*
X154186907Y-100230092D01*
X154186908Y-100230092D01*
X154156063Y-100227200D01*
X153240223Y-100227200D01*
X152273823Y-101193600D01*
X151628375Y-101193600D01*
X151628376Y-101193599D01*
X151628376Y-101193598D01*
X150661977Y-100227200D01*
X151307424Y-100227200D01*
X151951100Y-100870876D01*
X152594776Y-100227200D01*
X151307424Y-100227200D01*
X150661977Y-100227200D01*
X149746137Y-100227200D01*
X149715291Y-100230092D01*
X149709316Y-100231398D01*
X149708751Y-100228815D01*
X149657472Y-100229952D01*
X149606375Y-100194531D01*
X149585856Y-100135840D01*
X149593489Y-100095112D01*
X149628884Y-100009659D01*
X149646797Y-99873602D01*
X149646797Y-99873598D01*
X149628216Y-99732468D01*
X149639546Y-99671334D01*
X149684645Y-99628536D01*
X149737355Y-99619176D01*
X149746135Y-99620000D01*
X150661977Y-99620000D01*
X151307424Y-99620000D01*
X152594776Y-99620000D01*
X151951100Y-98976324D01*
X151307424Y-99620000D01*
X150661977Y-99620000D01*
X151628376Y-98653600D01*
X151628376Y-98653599D01*
X152273823Y-98653599D01*
X153240223Y-99620000D01*
X154156063Y-99620000D01*
X154186908Y-99617107D01*
X154316769Y-99571668D01*
X154427468Y-99489968D01*
X154509168Y-99379269D01*
X154554607Y-99249408D01*
X154557500Y-99218563D01*
X154557500Y-98088636D01*
X154554607Y-98057791D01*
X154509168Y-97927930D01*
X154427468Y-97817231D01*
X154316769Y-97735531D01*
X154186907Y-97690092D01*
X154186908Y-97690092D01*
X154156063Y-97687200D01*
X153240223Y-97687200D01*
X152273823Y-98653599D01*
X151628376Y-98653599D01*
X150661977Y-97687200D01*
X151307424Y-97687200D01*
X151951100Y-98330876D01*
X152594776Y-97687200D01*
X151307424Y-97687200D01*
X150661977Y-97687200D01*
X149746137Y-97687200D01*
X149715291Y-97690092D01*
X149585430Y-97735531D01*
X149474731Y-97817231D01*
X149393031Y-97927930D01*
X149347592Y-98057791D01*
X149344700Y-98088636D01*
X149344700Y-98787570D01*
X149325487Y-98846701D01*
X149275187Y-98883246D01*
X149213013Y-98883246D01*
X149172965Y-98858705D01*
X148748799Y-98434540D01*
X148740580Y-98423107D01*
X148739573Y-98423869D01*
X148733953Y-98416427D01*
X148697851Y-98383516D01*
X148696170Y-98381911D01*
X148681975Y-98367716D01*
X148679001Y-98365679D01*
X148673542Y-98361355D01*
X148649604Y-98339533D01*
X148649602Y-98339532D01*
X148640297Y-98335927D01*
X148619787Y-98325116D01*
X148611553Y-98319476D01*
X148580028Y-98312061D01*
X148573366Y-98309998D01*
X148569210Y-98308388D01*
X148543170Y-98298300D01*
X148543169Y-98298300D01*
X148533191Y-98298300D01*
X148510159Y-98295628D01*
X148500444Y-98293343D01*
X148500443Y-98293343D01*
X148488292Y-98295038D01*
X148468370Y-98297817D01*
X148461416Y-98298300D01*
X147454599Y-98298300D01*
X147395468Y-98279087D01*
X147358923Y-98228787D01*
X147353999Y-98197700D01*
X147353999Y-98128544D01*
X147345128Y-98083942D01*
X147345126Y-98083938D01*
X147311335Y-98033367D01*
X147311333Y-98033365D01*
X147260757Y-97999571D01*
X147225027Y-97992464D01*
X147216157Y-97990700D01*
X147216156Y-97990700D01*
X142886044Y-97990700D01*
X142841442Y-97999571D01*
X142841438Y-97999573D01*
X142790867Y-98033364D01*
X142790865Y-98033366D01*
X142757071Y-98083942D01*
X142748200Y-98128543D01*
X142748200Y-99178655D01*
X141526600Y-99178655D01*
X141526600Y-96638655D01*
X142748200Y-96638655D01*
X142757071Y-96683257D01*
X142757073Y-96683261D01*
X142790864Y-96733832D01*
X142790865Y-96733833D01*
X142790866Y-96733834D01*
X142841442Y-96767628D01*
X142886043Y-96776500D01*
X147216156Y-96776499D01*
X147260758Y-96767628D01*
X147311334Y-96733834D01*
X147345128Y-96683258D01*
X147354000Y-96638657D01*
X147354000Y-96519500D01*
X147373213Y-96460369D01*
X147423513Y-96423824D01*
X147454600Y-96418900D01*
X148369889Y-96418900D01*
X148383785Y-96421167D01*
X148383959Y-96419922D01*
X148393185Y-96421208D01*
X148393190Y-96421210D01*
X148422638Y-96419848D01*
X148441996Y-96418954D01*
X148444319Y-96418900D01*
X148464384Y-96418900D01*
X148464389Y-96418900D01*
X148467937Y-96418236D01*
X148474848Y-96417434D01*
X148507209Y-96415938D01*
X148516335Y-96411908D01*
X148538487Y-96405048D01*
X148548297Y-96403215D01*
X148575835Y-96386162D01*
X148581994Y-96382915D01*
X148611625Y-96369834D01*
X148618679Y-96362778D01*
X148636859Y-96348378D01*
X148645342Y-96343127D01*
X148664864Y-96317273D01*
X148669427Y-96312030D01*
X149172966Y-95808492D01*
X149228363Y-95780267D01*
X149289772Y-95789993D01*
X149333735Y-95833957D01*
X149344700Y-95879628D01*
X149344700Y-96678563D01*
X149347592Y-96709408D01*
X149393031Y-96839269D01*
X149474731Y-96949968D01*
X149585430Y-97031668D01*
X149715292Y-97077107D01*
X149715291Y-97077107D01*
X149746137Y-97080000D01*
X150661977Y-97080000D01*
X151307424Y-97080000D01*
X152594776Y-97080000D01*
X151951100Y-96436324D01*
X151307424Y-97080000D01*
X150661977Y-97080000D01*
X151628376Y-96113600D01*
X151628376Y-96113599D01*
X152273823Y-96113599D01*
X153240223Y-97080000D01*
X154156063Y-97080000D01*
X154186908Y-97077107D01*
X154316769Y-97031668D01*
X154427468Y-96949968D01*
X154509168Y-96839269D01*
X154554607Y-96709408D01*
X154557500Y-96678563D01*
X154557500Y-95548636D01*
X154554607Y-95517791D01*
X154509168Y-95387930D01*
X154427468Y-95277231D01*
X154316769Y-95195531D01*
X154186907Y-95150092D01*
X154186908Y-95150092D01*
X154156063Y-95147200D01*
X153240223Y-95147200D01*
X152273823Y-96113599D01*
X151628376Y-96113599D01*
X150661977Y-95147200D01*
X151307424Y-95147200D01*
X151951100Y-95790876D01*
X152594776Y-95147200D01*
X151307424Y-95147200D01*
X150661977Y-95147200D01*
X149746137Y-95147200D01*
X149715291Y-95150092D01*
X149709316Y-95151398D01*
X149708751Y-95148815D01*
X149657472Y-95149952D01*
X149606375Y-95114531D01*
X149585856Y-95055840D01*
X149593489Y-95015112D01*
X149628884Y-94929659D01*
X149646797Y-94793602D01*
X149646797Y-94793597D01*
X149628884Y-94657540D01*
X149576369Y-94530756D01*
X149576368Y-94530754D01*
X149576367Y-94530753D01*
X149576367Y-94530752D01*
X149492824Y-94421876D01*
X149492823Y-94421875D01*
X149492821Y-94421873D01*
X149383951Y-94338334D01*
X149383947Y-94338332D01*
X149257159Y-94285815D01*
X149121103Y-94267903D01*
X149121097Y-94267903D01*
X148985040Y-94285815D01*
X148858256Y-94338330D01*
X148858249Y-94338334D01*
X148749379Y-94421873D01*
X148749373Y-94421879D01*
X148665834Y-94530749D01*
X148665830Y-94530756D01*
X148613315Y-94657540D01*
X148595403Y-94793597D01*
X148595403Y-94793602D01*
X148613315Y-94929659D01*
X148665832Y-95056447D01*
X148665834Y-95056451D01*
X148749373Y-95165321D01*
X148749377Y-95165325D01*
X148773366Y-95183732D01*
X148808583Y-95234971D01*
X148806956Y-95297124D01*
X148783261Y-95334679D01*
X148339106Y-95778835D01*
X148283708Y-95807061D01*
X148267971Y-95808300D01*
X147454599Y-95808300D01*
X147395468Y-95789087D01*
X147358923Y-95738787D01*
X147353999Y-95707700D01*
X147353999Y-95588544D01*
X147345128Y-95543942D01*
X147345126Y-95543938D01*
X147311335Y-95493367D01*
X147311333Y-95493365D01*
X147260757Y-95459571D01*
X147225027Y-95452464D01*
X147216157Y-95450700D01*
X147216156Y-95450700D01*
X142886044Y-95450700D01*
X142841442Y-95459571D01*
X142841438Y-95459573D01*
X142790867Y-95493364D01*
X142790865Y-95493366D01*
X142757071Y-95543942D01*
X142748200Y-95588543D01*
X142748200Y-96638655D01*
X141526600Y-96638655D01*
X141526600Y-94098655D01*
X142748200Y-94098655D01*
X142757071Y-94143257D01*
X142757073Y-94143261D01*
X142790864Y-94193832D01*
X142790865Y-94193833D01*
X142790866Y-94193834D01*
X142841442Y-94227628D01*
X142886043Y-94236500D01*
X147216156Y-94236499D01*
X147260758Y-94227628D01*
X147311334Y-94193834D01*
X147311337Y-94193828D01*
X147311814Y-94193353D01*
X147312827Y-94192836D01*
X147319572Y-94188330D01*
X147320105Y-94189127D01*
X147367210Y-94165123D01*
X147428619Y-94174845D01*
X147454089Y-94193348D01*
X147513261Y-94252520D01*
X147541487Y-94307918D01*
X147531761Y-94369326D01*
X147503368Y-94403466D01*
X147479376Y-94421875D01*
X147395831Y-94530754D01*
X147395830Y-94530756D01*
X147343315Y-94657540D01*
X147325403Y-94793597D01*
X147325403Y-94793602D01*
X147343315Y-94929659D01*
X147395832Y-95056447D01*
X147395834Y-95056451D01*
X147479373Y-95165321D01*
X147479378Y-95165326D01*
X147570141Y-95234971D01*
X147588251Y-95248867D01*
X147656729Y-95277231D01*
X147715040Y-95301384D01*
X147851097Y-95319297D01*
X147851100Y-95319297D01*
X147851103Y-95319297D01*
X147953145Y-95305862D01*
X147987160Y-95301384D01*
X148113949Y-95248867D01*
X148222824Y-95165324D01*
X148306367Y-95056449D01*
X148358884Y-94929660D01*
X148376797Y-94793600D01*
X148358884Y-94657540D01*
X148306367Y-94530752D01*
X148222824Y-94421876D01*
X148195758Y-94401107D01*
X148160542Y-94349867D01*
X148156400Y-94321296D01*
X148156400Y-94224812D01*
X148158667Y-94210916D01*
X148157422Y-94210743D01*
X148158708Y-94201514D01*
X148158710Y-94201510D01*
X148157028Y-94165123D01*
X148156454Y-94152693D01*
X148156400Y-94150371D01*
X148156400Y-94130314D01*
X148156400Y-94130311D01*
X148155737Y-94126764D01*
X148154935Y-94119857D01*
X148153955Y-94098655D01*
X149648200Y-94098655D01*
X149657071Y-94143257D01*
X149657073Y-94143261D01*
X149690864Y-94193832D01*
X149690865Y-94193833D01*
X149690866Y-94193834D01*
X149741442Y-94227628D01*
X149786043Y-94236500D01*
X154116156Y-94236499D01*
X154160758Y-94227628D01*
X154211334Y-94193834D01*
X154245128Y-94143258D01*
X154254000Y-94098657D01*
X154253999Y-93048544D01*
X154245128Y-93003942D01*
X154245126Y-93003938D01*
X154211335Y-92953367D01*
X154211333Y-92953365D01*
X154160757Y-92919571D01*
X154125027Y-92912464D01*
X154116157Y-92910700D01*
X154116156Y-92910700D01*
X149786044Y-92910700D01*
X149741442Y-92919571D01*
X149741438Y-92919573D01*
X149690867Y-92953364D01*
X149690865Y-92953366D01*
X149657071Y-93003942D01*
X149648200Y-93048543D01*
X149648200Y-94098655D01*
X148153955Y-94098655D01*
X148153439Y-94087491D01*
X148149407Y-94078360D01*
X148142547Y-94056207D01*
X148140715Y-94046403D01*
X148123667Y-94018869D01*
X148120415Y-94012699D01*
X148107335Y-93983075D01*
X148100274Y-93976014D01*
X148085876Y-93957836D01*
X148080627Y-93949358D01*
X148054790Y-93929847D01*
X148049529Y-93925269D01*
X147478799Y-93354540D01*
X147470580Y-93343107D01*
X147469573Y-93343869D01*
X147463953Y-93336427D01*
X147427851Y-93303516D01*
X147426170Y-93301911D01*
X147411975Y-93287716D01*
X147409000Y-93285678D01*
X147403540Y-93281353D01*
X147396310Y-93274762D01*
X147386824Y-93266114D01*
X147356070Y-93212079D01*
X147353999Y-93191771D01*
X147353999Y-93048544D01*
X147345128Y-93003942D01*
X147345126Y-93003938D01*
X147311335Y-92953367D01*
X147311333Y-92953365D01*
X147260757Y-92919571D01*
X147225027Y-92912464D01*
X147216157Y-92910700D01*
X147216156Y-92910700D01*
X142886044Y-92910700D01*
X142841442Y-92919571D01*
X142841438Y-92919573D01*
X142790867Y-92953364D01*
X142790865Y-92953366D01*
X142757071Y-93003942D01*
X142748200Y-93048543D01*
X142748200Y-94098655D01*
X141526600Y-94098655D01*
X141526600Y-86129700D01*
X141545813Y-86070569D01*
X141596113Y-86034024D01*
X141627200Y-86029100D01*
X155375000Y-86029100D01*
X155434131Y-86048313D01*
G37*
%TD.AperFunction*%
%TD*%
M02*
